<svg width="427" height="89" viewBox="0 0 427 89" fill="none" xmlns="http://www.w3.org/2000/svg">
<path d="M26.884 13.886C26.716 14.162 26.542 14.366 26.362 14.498C26.194 14.618 25.972 14.678 25.696 14.678C25.432 14.678 25.144 14.588 24.832 14.408C24.532 14.216 24.178 14.012 23.77 13.796C23.362 13.58 22.894 13.382 22.366 13.202C21.838 13.01 21.22 12.914 20.512 12.914C19.264 12.914 18.328 13.196 17.704 13.76C17.08 14.312 16.768 15.038 16.768 15.938C16.768 16.514 16.936 16.994 17.272 17.378C17.62 17.75 18.07 18.074 18.622 18.35C19.186 18.626 19.822 18.872 20.53 19.088C21.238 19.304 21.964 19.544 22.708 19.808C23.452 20.06 24.178 20.36 24.886 20.708C25.594 21.056 26.224 21.494 26.776 22.022C27.34 22.55 27.79 23.198 28.126 23.966C28.474 24.722 28.648 25.646 28.648 26.738C28.648 27.926 28.438 29.042 28.018 30.086C27.61 31.118 27.016 32.024 26.236 32.804C25.456 33.572 24.49 34.178 23.338 34.622C22.198 35.066 20.902 35.288 19.45 35.288C18.622 35.288 17.794 35.204 16.966 35.036C16.15 34.868 15.358 34.634 14.59 34.334C13.834 34.034 13.12 33.674 12.448 33.254C11.776 32.834 11.188 32.366 10.684 31.85L12.268 29.294C12.4 29.102 12.574 28.946 12.79 28.826C13.006 28.694 13.234 28.628 13.474 28.628C13.798 28.628 14.14 28.748 14.5 28.988C14.86 29.228 15.274 29.492 15.742 29.78C16.21 30.068 16.75 30.332 17.362 30.572C17.986 30.812 18.73 30.932 19.594 30.932C20.854 30.932 21.826 30.644 22.51 30.068C23.206 29.492 23.554 28.634 23.554 27.494C23.554 26.834 23.38 26.3 23.032 25.892C22.696 25.484 22.252 25.142 21.7 24.866C21.148 24.59 20.518 24.356 19.81 24.164C19.102 23.96 18.376 23.738 17.632 23.498C16.888 23.258 16.162 22.97 15.454 22.634C14.746 22.298 14.116 21.854 13.564 21.302C13.012 20.75 12.562 20.066 12.214 19.25C11.878 18.434 11.71 17.42 11.71 16.208C11.71 15.236 11.902 14.294 12.286 13.382C12.67 12.47 13.234 11.66 13.978 10.952C14.722 10.244 15.634 9.674 16.714 9.242C17.806 8.81 19.054 8.594 20.458 8.594C22.03 8.594 23.482 8.84 24.814 9.332C26.158 9.812 27.292 10.484 28.216 11.348L26.884 13.886ZM43.617 23.534C43.617 23.018 43.545 22.526 43.401 22.058C43.269 21.59 43.053 21.176 42.753 20.816C42.453 20.456 42.075 20.174 41.619 19.97C41.163 19.754 40.617 19.646 39.981 19.646C38.793 19.646 37.863 19.982 37.191 20.654C36.519 21.326 36.081 22.286 35.877 23.534H43.617ZM35.805 26.486C35.961 28.226 36.453 29.498 37.281 30.302C38.121 31.106 39.213 31.508 40.557 31.508C41.241 31.508 41.829 31.43 42.321 31.274C42.825 31.106 43.263 30.926 43.635 30.734C44.019 30.53 44.361 30.35 44.661 30.194C44.973 30.026 45.279 29.942 45.579 29.942C45.963 29.942 46.263 30.086 46.479 30.374L47.919 32.174C47.391 32.786 46.809 33.296 46.173 33.704C45.537 34.1 44.877 34.418 44.193 34.658C43.509 34.886 42.819 35.042 42.123 35.126C41.427 35.222 40.755 35.27 40.107 35.27C38.811 35.27 37.599 35.06 36.471 34.64C35.355 34.208 34.377 33.578 33.537 32.75C32.709 31.91 32.055 30.872 31.575 29.636C31.095 28.4 30.855 26.966 30.855 25.334C30.855 24.074 31.059 22.886 31.467 21.77C31.887 20.654 32.487 19.682 33.267 18.854C34.047 18.026 34.995 17.372 36.111 16.892C37.227 16.4 38.487 16.154 39.891 16.154C41.079 16.154 42.171 16.346 43.167 16.73C44.175 17.102 45.039 17.648 45.759 18.368C46.491 19.088 47.055 19.976 47.451 21.032C47.859 22.076 48.063 23.27 48.063 24.614C48.063 24.986 48.045 25.292 48.009 25.532C47.973 25.772 47.913 25.964 47.829 26.108C47.745 26.252 47.631 26.354 47.487 26.414C47.343 26.462 47.157 26.486 46.929 26.486H35.805ZM60.8478 27.242C59.6358 27.302 58.6278 27.41 57.8238 27.566C57.0198 27.71 56.3778 27.902 55.8978 28.142C55.4298 28.382 55.0938 28.658 54.8898 28.97C54.6978 29.27 54.6018 29.6 54.6018 29.96C54.6018 30.68 54.7998 31.19 55.1958 31.49C55.6038 31.79 56.1678 31.94 56.8878 31.94C57.7158 31.94 58.4298 31.796 59.0298 31.508C59.6418 31.208 60.2478 30.746 60.8478 30.122V27.242ZM50.7318 19.016C51.8238 18.032 53.0298 17.3 54.3498 16.82C55.6698 16.328 57.0978 16.082 58.6338 16.082C59.7378 16.082 60.7218 16.262 61.5858 16.622C62.4618 16.982 63.1998 17.486 63.7998 18.134C64.4118 18.77 64.8798 19.532 65.2038 20.42C65.5278 21.308 65.6898 22.28 65.6898 23.336V35H63.4218C62.9538 35 62.5938 34.934 62.3418 34.802C62.1018 34.67 61.9038 34.394 61.7478 33.974L61.3518 32.786C60.8838 33.194 60.4278 33.554 59.9838 33.866C59.5518 34.178 59.1018 34.442 58.6338 34.658C58.1658 34.862 57.6618 35.018 57.1218 35.126C56.5938 35.234 55.9998 35.288 55.3398 35.288C54.5238 35.288 53.7798 35.18 53.1078 34.964C52.4358 34.748 51.8538 34.43 51.3618 34.01C50.8818 33.578 50.5098 33.044 50.2458 32.408C49.9818 31.772 49.8498 31.04 49.8498 30.212C49.8498 29.528 50.0238 28.844 50.3718 28.16C50.7198 27.476 51.3138 26.858 52.1538 26.306C53.0058 25.742 54.1338 25.28 55.5378 24.92C56.9538 24.548 58.7238 24.338 60.8478 24.29V23.336C60.8478 22.172 60.6018 21.32 60.1098 20.78C59.6178 20.228 58.9098 19.952 57.9858 19.952C57.3018 19.952 56.7318 20.036 56.2758 20.204C55.8198 20.36 55.4178 20.534 55.0698 20.726C54.7338 20.906 54.4158 21.08 54.1158 21.248C53.8158 21.404 53.4678 21.482 53.0718 21.482C52.7238 21.482 52.4298 21.398 52.1898 21.23C51.9618 21.05 51.7698 20.84 51.6138 20.6L50.7318 19.016ZM74.2296 19.502C74.8176 18.446 75.4956 17.612 76.2636 17C77.0316 16.388 77.9316 16.082 78.9636 16.082C79.8036 16.082 80.4876 16.28 81.0156 16.676L80.6916 20.348C80.6316 20.588 80.5356 20.756 80.4036 20.852C80.2836 20.936 80.1156 20.978 79.8996 20.978C79.7076 20.978 79.4316 20.954 79.0716 20.906C78.7116 20.846 78.3756 20.816 78.0636 20.816C77.6076 20.816 77.1996 20.882 76.8396 21.014C76.4916 21.146 76.1796 21.332 75.9036 21.572C75.6276 21.812 75.3756 22.106 75.1476 22.454C74.9316 22.802 74.7276 23.198 74.5356 23.642V35H69.5676V16.442H72.5016C73.0056 16.442 73.3536 16.532 73.5456 16.712C73.7376 16.892 73.8756 17.204 73.9596 17.648L74.2296 19.502ZM96.1801 20.582C96.0361 20.774 95.8921 20.924 95.7481 21.032C95.6041 21.128 95.4001 21.176 95.1361 21.176C94.8961 21.176 94.6621 21.11 94.4341 20.978C94.2181 20.834 93.9661 20.684 93.6781 20.528C93.3901 20.36 93.0481 20.21 92.6521 20.078C92.2561 19.934 91.7641 19.862 91.1761 19.862C90.4321 19.862 89.7841 20 89.2321 20.276C88.6921 20.54 88.2421 20.924 87.8821 21.428C87.5221 21.932 87.2521 22.544 87.0721 23.264C86.9041 23.984 86.8201 24.794 86.8201 25.694C86.8201 27.59 87.1981 29.042 87.9541 30.05C88.7221 31.058 89.7661 31.562 91.0861 31.562C91.5421 31.562 91.9321 31.526 92.2561 31.454C92.5921 31.37 92.8801 31.268 93.1201 31.148C93.3721 31.028 93.5881 30.896 93.7681 30.752C93.9481 30.608 94.1161 30.476 94.2721 30.356C94.4401 30.236 94.6021 30.14 94.7581 30.068C94.9261 29.984 95.1121 29.942 95.3161 29.942C95.7001 29.942 96.0001 30.086 96.2161 30.374L97.6381 32.174C97.1101 32.786 96.5461 33.296 95.9461 33.704C95.3461 34.1 94.7221 34.418 94.0741 34.658C93.4381 34.886 92.7901 35.042 92.1301 35.126C91.4701 35.222 90.8161 35.27 90.1681 35.27C89.0281 35.27 87.9481 35.06 86.9281 34.64C85.9081 34.208 85.0141 33.584 84.2461 32.768C83.4781 31.952 82.8661 30.95 82.4101 29.762C81.9661 28.574 81.7441 27.218 81.7441 25.694C81.7441 24.338 81.9421 23.078 82.3381 21.914C82.7341 20.75 83.3161 19.742 84.0841 18.89C84.8521 18.038 85.8001 17.372 86.9281 16.892C88.0681 16.4 89.3821 16.154 90.8701 16.154C92.2861 16.154 93.5281 16.382 94.5961 16.838C95.6641 17.294 96.6241 17.954 97.4761 18.818L96.1801 20.582ZM105.122 18.26C105.47 17.948 105.83 17.666 106.202 17.414C106.586 17.15 106.988 16.928 107.408 16.748C107.84 16.556 108.296 16.412 108.776 16.316C109.268 16.208 109.796 16.154 110.36 16.154C111.368 16.154 112.262 16.328 113.042 16.676C113.822 17.024 114.476 17.51 115.004 18.134C115.544 18.758 115.946 19.502 116.21 20.366C116.486 21.23 116.624 22.178 116.624 23.21V35H111.674V23.21C111.674 22.178 111.434 21.38 110.954 20.816C110.474 20.24 109.766 19.952 108.83 19.952C108.134 19.952 107.48 20.102 106.868 20.402C106.256 20.702 105.674 21.122 105.122 21.662V35H100.154V8.162H105.122V18.26ZM125.691 16.442V35H120.723V16.442H125.691ZM126.285 11.168C126.285 11.588 126.201 11.978 126.033 12.338C125.865 12.698 125.637 13.016 125.349 13.292C125.073 13.568 124.743 13.784 124.359 13.94C123.987 14.096 123.585 14.174 123.153 14.174C122.745 14.174 122.355 14.096 121.983 13.94C121.623 13.784 121.305 13.568 121.029 13.292C120.753 13.016 120.531 12.698 120.363 12.338C120.207 11.978 120.129 11.588 120.129 11.168C120.129 10.748 120.207 10.358 120.363 9.998C120.531 9.626 120.753 9.302 121.029 9.026C121.305 8.75 121.623 8.534 121.983 8.378C122.355 8.222 122.745 8.144 123.153 8.144C123.585 8.144 123.987 8.222 124.359 8.378C124.743 8.534 125.073 8.75 125.349 9.026C125.637 9.302 125.865 9.626 126.033 9.998C126.201 10.358 126.285 10.748 126.285 11.168ZM134.539 18.602C134.911 18.242 135.295 17.912 135.691 17.612C136.099 17.312 136.525 17.054 136.969 16.838C137.425 16.622 137.911 16.454 138.427 16.334C138.955 16.214 139.525 16.154 140.137 16.154C141.145 16.154 142.039 16.328 142.819 16.676C143.599 17.024 144.253 17.51 144.781 18.134C145.321 18.758 145.723 19.502 145.987 20.366C146.263 21.23 146.401 22.178 146.401 23.21V35H141.451V23.21C141.451 22.178 141.211 21.38 140.731 20.816C140.251 20.24 139.543 19.952 138.607 19.952C137.911 19.952 137.257 20.102 136.645 20.402C136.033 20.702 135.451 21.122 134.899 21.662V35H129.931V16.442H132.991C133.615 16.442 134.029 16.73 134.233 17.306L134.539 18.602ZM157.269 25.028C158.289 25.028 159.039 24.77 159.519 24.254C160.011 23.738 160.257 23.072 160.257 22.256C160.257 21.404 160.011 20.738 159.519 20.258C159.039 19.766 158.289 19.52 157.269 19.52C156.249 19.52 155.499 19.766 155.019 20.258C154.539 20.738 154.299 21.404 154.299 22.256C154.299 23.06 154.539 23.726 155.019 24.254C155.511 24.77 156.261 25.028 157.269 25.028ZM161.967 35.756C161.967 35.432 161.865 35.168 161.661 34.964C161.457 34.76 161.181 34.598 160.833 34.478C160.497 34.358 160.095 34.274 159.627 34.226C159.159 34.166 158.661 34.124 158.133 34.1C157.605 34.064 157.059 34.034 156.495 34.01C155.931 33.986 155.379 33.944 154.839 33.884C154.419 34.136 154.071 34.436 153.795 34.784C153.531 35.12 153.399 35.504 153.399 35.936C153.399 36.236 153.465 36.512 153.597 36.764C153.741 37.016 153.975 37.232 154.299 37.412C154.623 37.592 155.049 37.73 155.577 37.826C156.105 37.934 156.765 37.988 157.557 37.988C158.373 37.988 159.063 37.934 159.627 37.826C160.191 37.718 160.647 37.562 160.995 37.358C161.343 37.166 161.589 36.932 161.733 36.656C161.889 36.38 161.967 36.08 161.967 35.756ZM166.899 17.054V18.872C166.899 19.16 166.815 19.388 166.647 19.556C166.491 19.724 166.227 19.85 165.855 19.934L164.343 20.24C164.547 20.828 164.649 21.458 164.649 22.13C164.649 23.054 164.457 23.888 164.073 24.632C163.701 25.364 163.185 25.994 162.525 26.522C161.865 27.038 161.085 27.44 160.185 27.728C159.285 28.004 158.313 28.142 157.269 28.142C156.609 28.142 155.991 28.088 155.415 27.98C154.911 28.292 154.659 28.634 154.659 29.006C154.659 29.354 154.827 29.606 155.163 29.762C155.511 29.918 155.961 30.032 156.513 30.104C157.077 30.164 157.713 30.206 158.421 30.23C159.141 30.242 159.867 30.278 160.599 30.338C161.343 30.398 162.069 30.506 162.777 30.662C163.497 30.806 164.133 31.052 164.685 31.4C165.249 31.736 165.699 32.186 166.035 32.75C166.383 33.314 166.557 34.04 166.557 34.928C166.557 35.756 166.353 36.56 165.945 37.34C165.537 38.12 164.943 38.816 164.163 39.428C163.395 40.04 162.447 40.532 161.319 40.904C160.191 41.276 158.907 41.462 157.467 41.462C156.039 41.462 154.797 41.324 153.741 41.048C152.697 40.784 151.827 40.424 151.131 39.968C150.447 39.524 149.937 39.008 149.601 38.42C149.265 37.832 149.097 37.22 149.097 36.584C149.097 35.756 149.349 35.054 149.853 34.478C150.357 33.902 151.053 33.44 151.941 33.092C151.473 32.828 151.095 32.486 150.807 32.066C150.531 31.634 150.393 31.076 150.393 30.392C150.393 29.84 150.591 29.258 150.987 28.646C151.395 28.034 152.019 27.524 152.859 27.116C151.911 26.612 151.161 25.94 150.609 25.1C150.057 24.248 149.781 23.258 149.781 22.13C149.781 21.206 149.967 20.372 150.339 19.628C150.723 18.884 151.251 18.254 151.923 17.738C152.595 17.21 153.387 16.808 154.299 16.532C155.211 16.256 156.201 16.118 157.269 16.118C158.853 16.118 160.251 16.43 161.463 17.054H166.899ZM179.375 35V20.006L177.935 19.754C177.563 19.682 177.257 19.55 177.017 19.358C176.789 19.166 176.675 18.89 176.675 18.53V16.55H179.375V15.326C179.375 14.27 179.537 13.316 179.861 12.464C180.197 11.6 180.671 10.874 181.283 10.286C181.895 9.686 182.645 9.224 183.533 8.9C184.421 8.576 185.423 8.414 186.539 8.414C186.971 8.414 187.379 8.444 187.763 8.504C188.159 8.552 188.555 8.63 188.951 8.738L188.843 11.186C188.819 11.558 188.657 11.804 188.357 11.924C188.069 12.032 187.745 12.086 187.385 12.086C186.881 12.086 186.425 12.14 186.017 12.248C185.621 12.356 185.285 12.542 185.009 12.806C184.733 13.058 184.523 13.406 184.379 13.85C184.235 14.282 184.163 14.822 184.163 15.47V16.55H188.771V20.006H184.325V35H179.375ZM199.016 16.154C200.408 16.154 201.674 16.376 202.814 16.82C203.954 17.264 204.932 17.9 205.748 18.728C206.564 19.544 207.194 20.54 207.638 21.716C208.082 22.892 208.304 24.218 208.304 25.694C208.304 27.17 208.082 28.502 207.638 29.69C207.194 30.866 206.564 31.868 205.748 32.696C204.932 33.524 203.954 34.16 202.814 34.604C201.674 35.048 200.408 35.27 199.016 35.27C197.612 35.27 196.334 35.048 195.182 34.604C194.042 34.16 193.064 33.524 192.248 32.696C191.432 31.868 190.796 30.866 190.34 29.69C189.896 28.502 189.674 27.17 189.674 25.694C189.674 24.218 189.896 22.892 190.34 21.716C190.796 20.54 191.432 19.544 192.248 18.728C193.064 17.9 194.042 17.264 195.182 16.82C196.334 16.376 197.612 16.154 199.016 16.154ZM199.016 31.544C200.432 31.544 201.482 31.058 202.166 30.086C202.85 29.102 203.192 27.644 203.192 25.712C203.192 23.792 202.85 22.346 202.166 21.374C201.482 20.39 200.432 19.898 199.016 19.898C197.564 19.898 196.496 20.39 195.812 21.374C195.128 22.346 194.786 23.792 194.786 25.712C194.786 27.644 195.128 29.102 195.812 30.086C196.496 31.058 197.564 31.544 199.016 31.544ZM216.085 19.502C216.673 18.446 217.351 17.612 218.119 17C218.887 16.388 219.787 16.082 220.819 16.082C221.659 16.082 222.343 16.28 222.871 16.676L222.547 20.348C222.487 20.588 222.391 20.756 222.259 20.852C222.139 20.936 221.971 20.978 221.755 20.978C221.563 20.978 221.287 20.954 220.927 20.906C220.567 20.846 220.231 20.816 219.919 20.816C219.463 20.816 219.055 20.882 218.695 21.014C218.347 21.146 218.035 21.332 217.759 21.572C217.483 21.812 217.231 22.106 217.003 22.454C216.787 22.802 216.583 23.198 216.391 23.642V35H211.423V16.442H214.357C214.861 16.442 215.209 16.532 215.401 16.712C215.593 16.892 215.731 17.204 215.815 17.648L216.085 19.502ZM242.5 27.242C241.288 27.302 240.28 27.41 239.476 27.566C238.672 27.71 238.03 27.902 237.55 28.142C237.082 28.382 236.746 28.658 236.542 28.97C236.35 29.27 236.254 29.6 236.254 29.96C236.254 30.68 236.452 31.19 236.848 31.49C237.256 31.79 237.82 31.94 238.54 31.94C239.368 31.94 240.082 31.796 240.682 31.508C241.294 31.208 241.9 30.746 242.5 30.122V27.242ZM232.384 19.016C233.476 18.032 234.682 17.3 236.002 16.82C237.322 16.328 238.75 16.082 240.286 16.082C241.39 16.082 242.374 16.262 243.238 16.622C244.114 16.982 244.852 17.486 245.452 18.134C246.064 18.77 246.532 19.532 246.856 20.42C247.18 21.308 247.342 22.28 247.342 23.336V35H245.074C244.606 35 244.246 34.934 243.994 34.802C243.754 34.67 243.556 34.394 243.4 33.974L243.004 32.786C242.536 33.194 242.08 33.554 241.636 33.866C241.204 34.178 240.754 34.442 240.286 34.658C239.818 34.862 239.314 35.018 238.774 35.126C238.246 35.234 237.652 35.288 236.992 35.288C236.176 35.288 235.432 35.18 234.76 34.964C234.088 34.748 233.506 34.43 233.014 34.01C232.534 33.578 232.162 33.044 231.898 32.408C231.634 31.772 231.502 31.04 231.502 30.212C231.502 29.528 231.676 28.844 232.024 28.16C232.372 27.476 232.966 26.858 233.806 26.306C234.658 25.742 235.786 25.28 237.19 24.92C238.606 24.548 240.376 24.338 242.5 24.29V23.336C242.5 22.172 242.254 21.32 241.762 20.78C241.27 20.228 240.562 19.952 239.638 19.952C238.954 19.952 238.384 20.036 237.928 20.204C237.472 20.36 237.07 20.534 236.722 20.726C236.386 20.906 236.068 21.08 235.768 21.248C235.468 21.404 235.12 21.482 234.724 21.482C234.376 21.482 234.082 21.398 233.842 21.23C233.614 21.05 233.422 20.84 233.266 20.6L232.384 19.016ZM264.731 30.104C265.199 30.644 265.703 31.022 266.243 31.238C266.795 31.454 267.383 31.562 268.007 31.562C268.607 31.562 269.153 31.448 269.645 31.22C270.137 30.992 270.557 30.638 270.905 30.158C271.265 29.666 271.541 29.042 271.733 28.286C271.925 27.53 272.021 26.63 272.021 25.586C272.021 24.554 271.937 23.678 271.769 22.958C271.613 22.238 271.385 21.656 271.085 21.212C270.797 20.768 270.443 20.45 270.023 20.258C269.603 20.054 269.135 19.952 268.619 19.952C267.743 19.952 267.005 20.126 266.405 20.474C265.817 20.81 265.259 21.308 264.731 21.968V30.104ZM264.443 18.872C264.815 18.464 265.211 18.092 265.631 17.756C266.051 17.408 266.501 17.114 266.981 16.874C267.461 16.622 267.977 16.43 268.529 16.298C269.081 16.154 269.681 16.082 270.329 16.082C271.325 16.082 272.237 16.298 273.065 16.73C273.905 17.15 274.625 17.768 275.225 18.584C275.825 19.388 276.293 20.378 276.629 21.554C276.965 22.73 277.133 24.074 277.133 25.586C277.133 26.978 276.941 28.268 276.557 29.456C276.185 30.632 275.651 31.652 274.955 32.516C274.259 33.38 273.419 34.058 272.435 34.55C271.463 35.03 270.377 35.27 269.177 35.27C268.169 35.27 267.311 35.12 266.603 34.82C265.907 34.52 265.283 34.112 264.731 33.596V40.994H259.763V16.442H262.823C263.447 16.442 263.861 16.73 264.065 17.306L264.443 18.872ZM284.991 19.502C285.579 18.446 286.257 17.612 287.025 17C287.793 16.388 288.693 16.082 289.725 16.082C290.565 16.082 291.249 16.28 291.777 16.676L291.453 20.348C291.393 20.588 291.297 20.756 291.165 20.852C291.045 20.936 290.877 20.978 290.661 20.978C290.469 20.978 290.193 20.954 289.833 20.906C289.473 20.846 289.137 20.816 288.825 20.816C288.369 20.816 287.961 20.882 287.601 21.014C287.253 21.146 286.941 21.332 286.665 21.572C286.389 21.812 286.137 22.106 285.909 22.454C285.693 22.802 285.489 23.198 285.297 23.642V35H280.329V16.442H283.263C283.767 16.442 284.115 16.532 284.307 16.712C284.499 16.892 284.637 17.204 284.721 17.648L284.991 19.502ZM301.848 16.154C303.24 16.154 304.506 16.376 305.646 16.82C306.786 17.264 307.764 17.9 308.58 18.728C309.396 19.544 310.026 20.54 310.47 21.716C310.914 22.892 311.136 24.218 311.136 25.694C311.136 27.17 310.914 28.502 310.47 29.69C310.026 30.866 309.396 31.868 308.58 32.696C307.764 33.524 306.786 34.16 305.646 34.604C304.506 35.048 303.24 35.27 301.848 35.27C300.444 35.27 299.166 35.048 298.014 34.604C296.874 34.16 295.896 33.524 295.08 32.696C294.264 31.868 293.628 30.866 293.172 29.69C292.728 28.502 292.506 27.17 292.506 25.694C292.506 24.218 292.728 22.892 293.172 21.716C293.628 20.54 294.264 19.544 295.08 18.728C295.896 17.9 296.874 17.264 298.014 16.82C299.166 16.376 300.444 16.154 301.848 16.154ZM301.848 31.544C303.264 31.544 304.314 31.058 304.998 30.086C305.682 29.102 306.024 27.644 306.024 25.712C306.024 23.792 305.682 22.346 304.998 21.374C304.314 20.39 303.264 19.898 301.848 19.898C300.396 19.898 299.328 20.39 298.644 21.374C297.96 22.346 297.618 23.792 297.618 25.712C297.618 27.644 297.96 29.102 298.644 30.086C299.328 31.058 300.396 31.544 301.848 31.544ZM319.223 30.104C319.691 30.644 320.195 31.022 320.735 31.238C321.287 31.454 321.875 31.562 322.499 31.562C323.099 31.562 323.645 31.448 324.137 31.22C324.629 30.992 325.049 30.638 325.397 30.158C325.757 29.666 326.033 29.042 326.225 28.286C326.417 27.53 326.513 26.63 326.513 25.586C326.513 24.554 326.429 23.678 326.261 22.958C326.105 22.238 325.877 21.656 325.577 21.212C325.289 20.768 324.935 20.45 324.515 20.258C324.095 20.054 323.627 19.952 323.111 19.952C322.235 19.952 321.497 20.126 320.897 20.474C320.309 20.81 319.751 21.308 319.223 21.968V30.104ZM318.935 18.872C319.307 18.464 319.703 18.092 320.123 17.756C320.543 17.408 320.993 17.114 321.473 16.874C321.953 16.622 322.469 16.43 323.021 16.298C323.573 16.154 324.173 16.082 324.821 16.082C325.817 16.082 326.729 16.298 327.557 16.73C328.397 17.15 329.117 17.768 329.717 18.584C330.317 19.388 330.785 20.378 331.121 21.554C331.457 22.73 331.625 24.074 331.625 25.586C331.625 26.978 331.433 28.268 331.049 29.456C330.677 30.632 330.143 31.652 329.447 32.516C328.751 33.38 327.911 34.058 326.927 34.55C325.955 35.03 324.869 35.27 323.669 35.27C322.661 35.27 321.803 35.12 321.095 34.82C320.399 34.52 319.775 34.112 319.223 33.596V40.994H314.255V16.442H317.315C317.939 16.442 318.353 16.73 318.557 17.306L318.935 18.872ZM346.594 23.534C346.594 23.018 346.522 22.526 346.378 22.058C346.246 21.59 346.03 21.176 345.73 20.816C345.43 20.456 345.052 20.174 344.596 19.97C344.14 19.754 343.594 19.646 342.958 19.646C341.77 19.646 340.84 19.982 340.168 20.654C339.496 21.326 339.058 22.286 338.854 23.534H346.594ZM338.782 26.486C338.938 28.226 339.43 29.498 340.258 30.302C341.098 31.106 342.19 31.508 343.534 31.508C344.218 31.508 344.806 31.43 345.298 31.274C345.802 31.106 346.24 30.926 346.612 30.734C346.996 30.53 347.338 30.35 347.638 30.194C347.95 30.026 348.256 29.942 348.556 29.942C348.94 29.942 349.24 30.086 349.456 30.374L350.896 32.174C350.368 32.786 349.786 33.296 349.15 33.704C348.514 34.1 347.854 34.418 347.17 34.658C346.486 34.886 345.796 35.042 345.1 35.126C344.404 35.222 343.732 35.27 343.084 35.27C341.788 35.27 340.576 35.06 339.448 34.64C338.332 34.208 337.354 33.578 336.514 32.75C335.686 31.91 335.032 30.872 334.552 29.636C334.072 28.4 333.832 26.966 333.832 25.334C333.832 24.074 334.036 22.886 334.444 21.77C334.864 20.654 335.464 19.682 336.244 18.854C337.024 18.026 337.972 17.372 339.088 16.892C340.204 16.4 341.464 16.154 342.868 16.154C344.056 16.154 345.148 16.346 346.144 16.73C347.152 17.102 348.016 17.648 348.736 18.368C349.468 19.088 350.032 19.976 350.428 21.032C350.836 22.076 351.04 23.27 351.04 24.614C351.04 24.986 351.022 25.292 350.986 25.532C350.95 25.772 350.89 25.964 350.806 26.108C350.722 26.252 350.608 26.354 350.464 26.414C350.32 26.462 350.134 26.486 349.906 26.486H338.782ZM358.784 19.502C359.372 18.446 360.05 17.612 360.818 17C361.586 16.388 362.486 16.082 363.518 16.082C364.358 16.082 365.042 16.28 365.57 16.676L365.246 20.348C365.186 20.588 365.09 20.756 364.958 20.852C364.838 20.936 364.67 20.978 364.454 20.978C364.262 20.978 363.986 20.954 363.626 20.906C363.266 20.846 362.93 20.816 362.618 20.816C362.162 20.816 361.754 20.882 361.394 21.014C361.046 21.146 360.734 21.332 360.458 21.572C360.182 21.812 359.93 22.106 359.702 22.454C359.486 22.802 359.282 23.198 359.09 23.642V35H354.122V16.442H357.056C357.56 16.442 357.908 16.532 358.1 16.712C358.292 16.892 358.43 17.204 358.514 17.648L358.784 19.502ZM374.101 35.288C373.261 35.288 372.517 35.168 371.869 34.928C371.221 34.676 370.675 34.322 370.231 33.866C369.787 33.41 369.451 32.858 369.223 32.21C368.995 31.562 368.881 30.83 368.881 30.014V20.006H367.135C366.871 20.006 366.643 19.922 366.451 19.754C366.271 19.586 366.181 19.334 366.181 18.998V17.054L369.151 16.514L370.159 11.708C370.291 11.168 370.657 10.898 371.257 10.898H373.849V16.55H378.637V20.006H373.849V29.69C373.849 30.206 373.969 30.614 374.209 30.914C374.461 31.214 374.815 31.364 375.271 31.364C375.511 31.364 375.715 31.34 375.883 31.292C376.051 31.232 376.195 31.172 376.315 31.112C376.435 31.04 376.543 30.98 376.639 30.932C376.747 30.872 376.855 30.842 376.963 30.842C377.107 30.842 377.227 30.878 377.323 30.95C377.419 31.01 377.515 31.118 377.611 31.274L379.105 33.65C378.421 34.19 377.647 34.598 376.783 34.874C375.919 35.15 375.025 35.288 374.101 35.288ZM398.506 16.442L388.498 39.986C388.342 40.322 388.15 40.574 387.922 40.742C387.706 40.91 387.358 40.994 386.878 40.994H383.188L386.698 33.506L379.246 16.442H383.602C383.998 16.442 384.304 16.532 384.52 16.712C384.736 16.892 384.892 17.102 384.988 17.342L388.516 26.216C388.648 26.564 388.762 26.918 388.858 27.278C388.966 27.626 389.068 27.974 389.164 28.322C389.38 27.614 389.626 26.906 389.902 26.198L393.178 17.342C393.274 17.078 393.448 16.862 393.7 16.694C393.952 16.526 394.228 16.442 394.528 16.442H398.506ZM399.594 11.258C400.026 10.886 400.488 10.538 400.98 10.214C401.484 9.89 402.024 9.608 402.6 9.368C403.188 9.128 403.818 8.942 404.49 8.81C405.174 8.666 405.906 8.594 406.686 8.594C407.766 8.594 408.744 8.744 409.62 9.044C410.496 9.332 411.246 9.752 411.87 10.304C412.494 10.844 412.974 11.498 413.31 12.266C413.658 13.034 413.832 13.892 413.832 14.84C413.832 15.752 413.7 16.544 413.436 17.216C413.184 17.876 412.86 18.452 412.464 18.944C412.08 19.436 411.654 19.862 411.186 20.222C410.718 20.582 410.274 20.918 409.854 21.23C409.434 21.542 409.068 21.854 408.756 22.166C408.456 22.466 408.27 22.802 408.198 23.174L407.748 25.748H404.346L404.004 22.832C403.92 22.256 403.992 21.758 404.22 21.338C404.448 20.906 404.754 20.516 405.138 20.168C405.522 19.808 405.948 19.466 406.416 19.142C406.896 18.806 407.34 18.452 407.748 18.08C408.168 17.696 408.516 17.27 408.792 16.802C409.08 16.322 409.224 15.758 409.224 15.11C409.224 14.318 408.948 13.688 408.396 13.22C407.856 12.752 407.136 12.518 406.236 12.518C405.576 12.518 405.018 12.59 404.562 12.734C404.118 12.878 403.734 13.04 403.41 13.22C403.086 13.388 402.81 13.544 402.582 13.688C402.354 13.832 402.138 13.904 401.934 13.904C401.478 13.904 401.136 13.706 400.908 13.31L399.594 11.258ZM402.96 32.39C402.96 31.994 403.032 31.622 403.176 31.274C403.332 30.914 403.542 30.608 403.806 30.356C404.07 30.092 404.376 29.888 404.724 29.744C405.084 29.588 405.474 29.51 405.894 29.51C406.302 29.51 406.686 29.588 407.046 29.744C407.406 29.888 407.718 30.092 407.982 30.356C408.246 30.608 408.45 30.914 408.594 31.274C408.75 31.622 408.828 31.994 408.828 32.39C408.828 32.798 408.75 33.176 408.594 33.524C408.45 33.872 408.246 34.178 407.982 34.442C407.718 34.694 407.406 34.892 407.046 35.036C406.686 35.18 406.302 35.252 405.894 35.252C405.474 35.252 405.084 35.18 404.724 35.036C404.376 34.892 404.07 34.694 403.806 34.442C403.542 34.178 403.332 33.872 403.176 33.524C403.032 33.176 402.96 32.798 402.96 32.39Z" fill="black" fill-opacity="0.9"/>
<path d="M9.44 64.536C9.536 64.536 9.61867 64.5733 9.688 64.648L10.36 65.384C9.89067 65.9387 9.31733 66.368 8.64 66.672C7.968 66.976 7.15733 67.128 6.208 67.128C5.376 67.128 4.62133 66.984 3.944 66.696C3.272 66.408 2.696 66.0053 2.216 65.488C1.74133 64.9707 1.37333 64.352 1.112 63.632C0.850667 62.912 0.72 62.12 0.72 61.256C0.72 60.392 0.856 59.6 1.128 58.88C1.40533 58.16 1.792 57.5413 2.288 57.024C2.784 56.5067 3.376 56.104 4.064 55.816C4.75733 55.528 5.52267 55.384 6.36 55.384C7.176 55.384 7.90133 55.5173 8.536 55.784C9.17067 56.0507 9.72267 56.4053 10.192 56.848L9.632 57.64C9.59467 57.6987 9.54667 57.7467 9.488 57.784C9.43467 57.8213 9.36267 57.84 9.272 57.84C9.17067 57.84 9.05067 57.7893 8.912 57.688C8.77867 57.5867 8.6 57.4747 8.376 57.352C8.15733 57.224 7.88533 57.1093 7.56 57.008C7.23467 56.9067 6.82933 56.856 6.344 56.856C5.77333 56.856 5.25067 56.9573 4.776 57.16C4.30133 57.3573 3.89067 57.6453 3.544 58.024C3.20267 58.3973 2.936 58.8587 2.744 59.408C2.55733 59.952 2.464 60.568 2.464 61.256C2.464 61.9547 2.56267 62.576 2.76 63.12C2.95733 63.664 3.22933 64.1253 3.576 64.504C3.92267 64.8827 4.33067 65.1707 4.8 65.368C5.26933 65.5653 5.776 65.664 6.32 65.664C6.65067 65.664 6.94667 65.6453 7.208 65.608C7.47467 65.5653 7.71733 65.504 7.936 65.424C8.16 65.344 8.37067 65.2427 8.568 65.12C8.76533 64.992 8.96 64.84 9.152 64.664C9.19467 64.6267 9.24 64.5973 9.288 64.576C9.336 64.5493 9.38667 64.536 9.44 64.536ZM15.06 58.744C15.6573 58.744 16.196 58.8427 16.676 59.04C17.1613 59.232 17.572 59.512 17.908 59.88C18.2493 60.2427 18.5107 60.6827 18.692 61.2C18.8733 61.712 18.964 62.288 18.964 62.928C18.964 63.568 18.8733 64.1467 18.692 64.664C18.5107 65.1813 18.2493 65.6213 17.908 65.984C17.572 66.3467 17.1613 66.6267 16.676 66.824C16.196 67.016 15.6573 67.112 15.06 67.112C14.4573 67.112 13.9133 67.016 13.428 66.824C12.948 66.6267 12.5373 66.3467 12.196 65.984C11.8547 65.6213 11.5907 65.1813 11.404 64.664C11.2227 64.1467 11.132 63.568 11.132 62.928C11.132 62.288 11.2227 61.712 11.404 61.2C11.5907 60.6827 11.8547 60.2427 12.196 59.88C12.5373 59.512 12.948 59.232 13.428 59.04C13.9133 58.8427 14.4573 58.744 15.06 58.744ZM15.06 65.896C15.828 65.896 16.4013 65.6373 16.78 65.12C17.1587 64.6027 17.348 63.8747 17.348 62.936C17.348 61.9973 17.1587 61.2693 16.78 60.752C16.4013 60.2293 15.828 59.968 15.06 59.968C14.2813 59.968 13.7 60.2293 13.316 60.752C12.9373 61.2693 12.748 61.9973 12.748 62.936C12.748 63.8747 12.9373 64.6027 13.316 65.12C13.7 65.6373 14.2813 65.896 15.06 65.896ZM30.1834 55.512V67H28.4794V61.824H22.4874V67H20.7754V55.512H22.4874V60.584H28.4794V55.512H30.1834ZM35.9194 58.744C36.5167 58.744 37.0554 58.8427 37.5354 59.04C38.0207 59.232 38.4314 59.512 38.7674 59.88C39.1087 60.2427 39.37 60.6827 39.5514 61.2C39.7327 61.712 39.8234 62.288 39.8234 62.928C39.8234 63.568 39.7327 64.1467 39.5514 64.664C39.37 65.1813 39.1087 65.6213 38.7674 65.984C38.4314 66.3467 38.0207 66.6267 37.5354 66.824C37.0554 67.016 36.5167 67.112 35.9194 67.112C35.3167 67.112 34.7727 67.016 34.2874 66.824C33.8074 66.6267 33.3967 66.3467 33.0554 65.984C32.714 65.6213 32.45 65.1813 32.2634 64.664C32.082 64.1467 31.9914 63.568 31.9914 62.928C31.9914 62.288 32.082 61.712 32.2634 61.2C32.45 60.6827 32.714 60.2427 33.0554 59.88C33.3967 59.512 33.8074 59.232 34.2874 59.04C34.7727 58.8427 35.3167 58.744 35.9194 58.744ZM35.9194 65.896C36.6874 65.896 37.2607 65.6373 37.6394 65.12C38.018 64.6027 38.2074 63.8747 38.2074 62.936C38.2074 61.9973 38.018 61.2693 37.6394 60.752C37.2607 60.2293 36.6874 59.968 35.9194 59.968C35.1407 59.968 34.5594 60.2293 34.1754 60.752C33.7967 61.2693 33.6074 61.9973 33.6074 62.936C33.6074 63.8747 33.7967 64.6027 34.1754 65.12C34.5594 65.6373 35.1407 65.896 35.9194 65.896ZM41.5648 67V58.872H42.5008C42.7194 58.872 42.8554 58.976 42.9088 59.184L43.0208 59.96C43.3194 59.6027 43.6501 59.312 44.0128 59.088C44.3808 58.8587 44.8101 58.744 45.3008 58.744C45.8394 58.744 46.2768 58.8933 46.6128 59.192C46.9488 59.4853 47.1941 59.8853 47.3488 60.392C47.4661 60.104 47.6181 59.856 47.8048 59.648C47.9914 59.44 48.1994 59.2693 48.4288 59.136C48.6581 59.0027 48.9008 58.904 49.1568 58.84C49.4181 58.776 49.6821 58.744 49.9488 58.744C50.3808 58.744 50.7648 58.8133 51.1008 58.952C51.4421 59.0853 51.7301 59.2827 51.9648 59.544C52.1994 59.8053 52.3781 60.128 52.5008 60.512C52.6234 60.896 52.6848 61.3333 52.6848 61.824V67H51.1168V61.824C51.1168 61.216 50.9834 60.7573 50.7168 60.448C50.4554 60.1387 50.0714 59.984 49.5648 59.984C49.3408 59.984 49.1274 60.024 48.9248 60.104C48.7221 60.1787 48.5434 60.2933 48.3888 60.448C48.2394 60.6027 48.1194 60.7947 48.0288 61.024C47.9434 61.2533 47.9008 61.52 47.9008 61.824V67H46.3328V61.824C46.3328 61.1947 46.2074 60.7307 45.9568 60.432C45.7061 60.1333 45.3381 59.984 44.8528 59.984C44.5168 59.984 44.2048 60.072 43.9168 60.248C43.6288 60.424 43.3648 60.664 43.1248 60.968V67H41.5648ZM60.1675 62.032C60.1675 61.7227 60.1222 61.4373 60.0315 61.176C59.9462 60.9147 59.8182 60.688 59.6475 60.496C59.4768 60.304 59.2688 60.1547 59.0235 60.048C58.7782 59.9413 58.4955 59.888 58.1755 59.888C57.5195 59.888 57.0022 60.0773 56.6235 60.456C56.2502 60.8347 56.0128 61.36 55.9115 62.032H60.1675ZM61.4555 65.84C61.2635 66.064 61.0422 66.2587 60.7915 66.424C60.5408 66.584 60.2742 66.7147 59.9915 66.816C59.7088 66.9173 59.4155 66.992 59.1115 67.04C58.8128 67.088 58.5168 67.112 58.2235 67.112C57.6635 67.112 57.1435 67.0187 56.6635 66.832C56.1888 66.64 55.7755 66.3627 55.4235 66C55.0768 65.632 54.8048 65.1787 54.6075 64.64C54.4155 64.096 54.3195 63.472 54.3195 62.768C54.3195 62.2027 54.4075 61.6773 54.5835 61.192C54.7595 60.7013 55.0102 60.2747 55.3355 59.912C55.6662 59.5493 56.0688 59.264 56.5435 59.056C57.0182 58.848 57.5515 58.744 58.1435 58.744C58.6395 58.744 59.0955 58.8267 59.5115 58.992C59.9328 59.152 60.2955 59.3867 60.5995 59.696C60.9035 60.0053 61.1408 60.3867 61.3115 60.84C61.4875 61.2933 61.5755 61.8107 61.5755 62.392C61.5755 62.632 61.5488 62.7947 61.4955 62.88C61.4422 62.96 61.3435 63 61.1995 63H55.8715C55.8875 63.4853 55.9568 63.9093 56.0795 64.272C56.2022 64.6293 56.3702 64.928 56.5835 65.168C56.8022 65.408 57.0608 65.5867 57.3595 65.704C57.6582 65.8213 57.9915 65.88 58.3595 65.88C58.7062 65.88 59.0048 65.84 59.2555 65.76C59.5115 65.68 59.7302 65.5947 59.9115 65.504C60.0982 65.408 60.2528 65.32 60.3755 65.24C60.5035 65.16 60.6155 65.12 60.7115 65.12C60.8395 65.12 60.9382 65.168 61.0075 65.264L61.4555 65.84ZM68.0443 60.272C68.0016 60.3413 67.9563 60.392 67.9083 60.424C67.8603 60.4507 67.7989 60.464 67.7243 60.464C67.6389 60.464 67.5429 60.4347 67.4363 60.376C67.3349 60.3173 67.2096 60.2533 67.0603 60.184C66.9163 60.1147 66.7456 60.0507 66.5483 59.992C66.3509 59.9333 66.1163 59.904 65.8443 59.904C65.6203 59.904 65.4149 59.9333 65.2283 59.992C65.0469 60.0453 64.8923 60.1227 64.7643 60.224C64.6363 60.32 64.5376 60.4373 64.4683 60.576C64.3989 60.7093 64.3643 60.8533 64.3643 61.008C64.3643 61.2107 64.4229 61.3787 64.5403 61.512C64.6629 61.6453 64.8203 61.76 65.0123 61.856C65.2096 61.952 65.4309 62.04 65.6763 62.12C65.9269 62.1947 66.1803 62.2747 66.4363 62.36C66.6976 62.4453 66.9509 62.544 67.1963 62.656C67.4469 62.7627 67.6683 62.8987 67.8603 63.064C68.0576 63.224 68.2149 63.4187 68.3323 63.648C68.4549 63.8773 68.5163 64.1573 68.5163 64.488C68.5163 64.8667 68.4469 65.2187 68.3083 65.544C68.1749 65.864 67.9749 66.1413 67.7083 66.376C67.4469 66.6107 67.1216 66.7947 66.7323 66.928C66.3429 67.0613 65.8976 67.128 65.3963 67.128C64.8363 67.128 64.3189 67.0347 63.8443 66.848C63.3696 66.6613 62.9723 66.424 62.6523 66.136L63.0203 65.536C63.0629 65.4613 63.1163 65.4053 63.1803 65.368C63.2443 65.3253 63.3296 65.304 63.4363 65.304C63.5376 65.304 63.6416 65.3413 63.7483 65.416C63.8549 65.4907 63.9829 65.5733 64.1323 65.664C64.2816 65.7493 64.4629 65.8293 64.6763 65.904C64.8896 65.9733 65.1563 66.008 65.4763 66.008C65.7429 66.008 65.9749 65.976 66.1723 65.912C66.3696 65.8427 66.5323 65.752 66.6603 65.64C66.7936 65.5227 66.8923 65.3893 66.9563 65.24C67.0203 65.0907 67.0523 64.9333 67.0523 64.768C67.0523 64.5547 66.9909 64.3787 66.8683 64.24C66.7509 64.096 66.5936 63.9733 66.3963 63.872C66.2043 63.7707 65.9829 63.6827 65.7323 63.608C65.4816 63.5333 65.2256 63.4533 64.9643 63.368C64.7029 63.2827 64.4469 63.184 64.1963 63.072C63.9456 62.96 63.7216 62.8187 63.5243 62.648C63.3323 62.4773 63.1749 62.2693 63.0523 62.024C62.9349 61.7787 62.8763 61.48 62.8763 61.128C62.8763 60.8133 62.9403 60.512 63.0683 60.224C63.2016 59.936 63.3909 59.6827 63.6363 59.464C63.8869 59.2453 64.1936 59.072 64.5563 58.944C64.9243 58.8107 65.3429 58.744 65.8123 58.744C66.3509 58.744 66.8363 58.8293 67.2683 59C67.7056 59.1707 68.0789 59.4053 68.3883 59.704L68.0443 60.272ZM75.8843 58.872V67H74.3243V58.872H75.8843ZM76.1803 56.36C76.1803 56.504 76.1509 56.6427 76.0923 56.776C76.0336 56.904 75.9536 57.0187 75.8523 57.12C75.7563 57.216 75.6416 57.2933 75.5082 57.352C75.3749 57.4053 75.2363 57.432 75.0923 57.432C74.9483 57.432 74.8123 57.4053 74.6843 57.352C74.5563 57.2933 74.4416 57.216 74.3403 57.12C74.2443 57.0187 74.1669 56.904 74.1083 56.776C74.0549 56.6427 74.0283 56.504 74.0283 56.36C74.0283 56.2107 74.0549 56.072 74.1083 55.944C74.1669 55.8107 74.2443 55.696 74.3403 55.6C74.4416 55.4987 74.5563 55.4213 74.6843 55.368C74.8123 55.3093 74.9483 55.28 75.0923 55.28C75.2363 55.28 75.3749 55.3093 75.5082 55.368C75.6416 55.4213 75.7563 55.4987 75.8523 55.6C75.9536 55.696 76.0336 55.8107 76.0923 55.944C76.1509 56.072 76.1803 56.2107 76.1803 56.36ZM82.9349 60.272C82.8922 60.3413 82.8469 60.392 82.7989 60.424C82.7509 60.4507 82.6895 60.464 82.6149 60.464C82.5295 60.464 82.4335 60.4347 82.3269 60.376C82.2255 60.3173 82.1002 60.2533 81.9509 60.184C81.8069 60.1147 81.6362 60.0507 81.4389 59.992C81.2415 59.9333 81.0069 59.904 80.7349 59.904C80.5109 59.904 80.3055 59.9333 80.1189 59.992C79.9375 60.0453 79.7829 60.1227 79.6549 60.224C79.5269 60.32 79.4282 60.4373 79.3589 60.576C79.2895 60.7093 79.2549 60.8533 79.2549 61.008C79.2549 61.2107 79.3135 61.3787 79.4309 61.512C79.5535 61.6453 79.7109 61.76 79.9029 61.856C80.1002 61.952 80.3215 62.04 80.5669 62.12C80.8175 62.1947 81.0709 62.2747 81.3269 62.36C81.5882 62.4453 81.8415 62.544 82.0869 62.656C82.3375 62.7627 82.5589 62.8987 82.7509 63.064C82.9482 63.224 83.1055 63.4187 83.2229 63.648C83.3455 63.8773 83.4069 64.1573 83.4069 64.488C83.4069 64.8667 83.3375 65.2187 83.1989 65.544C83.0655 65.864 82.8655 66.1413 82.5989 66.376C82.3375 66.6107 82.0122 66.7947 81.6229 66.928C81.2335 67.0613 80.7882 67.128 80.2869 67.128C79.7269 67.128 79.2095 67.0347 78.7349 66.848C78.2602 66.6613 77.8629 66.424 77.5429 66.136L77.9109 65.536C77.9535 65.4613 78.0069 65.4053 78.0709 65.368C78.1349 65.3253 78.2202 65.304 78.3269 65.304C78.4282 65.304 78.5322 65.3413 78.6389 65.416C78.7455 65.4907 78.8735 65.5733 79.0229 65.664C79.1722 65.7493 79.3535 65.8293 79.5669 65.904C79.7802 65.9733 80.0469 66.008 80.3669 66.008C80.6335 66.008 80.8655 65.976 81.0629 65.912C81.2602 65.8427 81.4229 65.752 81.5509 65.64C81.6842 65.5227 81.7829 65.3893 81.8469 65.24C81.9109 65.0907 81.9429 64.9333 81.9429 64.768C81.9429 64.5547 81.8815 64.3787 81.7589 64.24C81.6415 64.096 81.4842 63.9733 81.2869 63.872C81.0949 63.7707 80.8735 63.6827 80.6229 63.608C80.3722 63.5333 80.1162 63.4533 79.8549 63.368C79.5935 63.2827 79.3375 63.184 79.0869 63.072C78.8362 62.96 78.6122 62.8187 78.4149 62.648C78.2229 62.4773 78.0655 62.2693 77.9429 62.024C77.8255 61.7787 77.7669 61.48 77.7669 61.128C77.7669 60.8133 77.8309 60.512 77.9589 60.224C78.0922 59.936 78.2815 59.6827 78.5269 59.464C78.7775 59.2453 79.0842 59.072 79.4469 58.944C79.8149 58.8107 80.2335 58.744 80.7029 58.744C81.2415 58.744 81.7269 58.8293 82.1589 59C82.5962 59.1707 82.9695 59.4053 83.2789 59.704L82.9349 60.272ZM94.8389 60.392C94.7909 60.4507 94.7429 60.4987 94.6949 60.536C94.6522 60.568 94.5882 60.584 94.5029 60.584C94.4175 60.584 94.3269 60.552 94.2309 60.488C94.1402 60.4187 94.0229 60.3467 93.8789 60.272C93.7402 60.192 93.5695 60.12 93.3669 60.056C93.1695 59.9867 92.9242 59.952 92.6309 59.952C92.2469 59.952 91.9082 60.0213 91.6149 60.16C91.3215 60.2987 91.0762 60.496 90.8789 60.752C90.6869 61.008 90.5402 61.32 90.4389 61.688C90.3375 62.056 90.2869 62.4693 90.2869 62.928C90.2869 63.4027 90.3402 63.8267 90.4469 64.2C90.5535 64.568 90.7055 64.88 90.9029 65.136C91.1002 65.3867 91.3402 65.5787 91.6229 65.712C91.9055 65.84 92.2202 65.904 92.5669 65.904C92.9029 65.904 93.1802 65.864 93.3989 65.784C93.6175 65.6987 93.7989 65.608 93.9429 65.512C94.0869 65.416 94.2069 65.328 94.3029 65.248C94.3989 65.1627 94.4975 65.12 94.5989 65.12C94.7269 65.12 94.8255 65.168 94.8949 65.264L95.3429 65.84C95.1562 66.0693 94.9455 66.264 94.7109 66.424C94.4815 66.584 94.2362 66.7147 93.9749 66.816C93.7135 66.9173 93.4389 66.992 93.1509 67.04C92.8682 67.088 92.5802 67.112 92.2869 67.112C91.7802 67.112 91.3055 67.0187 90.8629 66.832C90.4255 66.6453 90.0442 66.3733 89.7189 66.016C89.3989 65.6587 89.1455 65.2213 88.9589 64.704C88.7722 64.1813 88.6789 63.5893 88.6789 62.928C88.6789 62.3253 88.7615 61.768 88.9269 61.256C89.0975 60.744 89.3455 60.304 89.6709 59.936C90.0015 59.5627 90.4069 59.272 90.8869 59.064C91.3669 58.8507 91.9162 58.744 92.5349 58.744C93.1162 58.744 93.6282 58.8373 94.0709 59.024C94.5135 59.2107 94.9082 59.4747 95.2549 59.816L94.8389 60.392ZM100.123 58.744C100.72 58.744 101.259 58.8427 101.739 59.04C102.224 59.232 102.635 59.512 102.971 59.88C103.312 60.2427 103.573 60.6827 103.755 61.2C103.936 61.712 104.027 62.288 104.027 62.928C104.027 63.568 103.936 64.1467 103.755 64.664C103.573 65.1813 103.312 65.6213 102.971 65.984C102.635 66.3467 102.224 66.6267 101.739 66.824C101.259 67.016 100.72 67.112 100.123 67.112C99.5198 67.112 98.9758 67.016 98.4905 66.824C98.0105 66.6267 97.5998 66.3467 97.2585 65.984C96.9172 65.6213 96.6532 65.1813 96.4665 64.664C96.2852 64.1467 96.1945 63.568 96.1945 62.928C96.1945 62.288 96.2852 61.712 96.4665 61.2C96.6532 60.6827 96.9172 60.2427 97.2585 59.88C97.5998 59.512 98.0105 59.232 98.4905 59.04C98.9758 58.8427 99.5198 58.744 100.123 58.744ZM100.123 65.896C100.891 65.896 101.464 65.6373 101.843 65.12C102.221 64.6027 102.411 63.8747 102.411 62.936C102.411 61.9973 102.221 61.2693 101.843 60.752C101.464 60.2293 100.891 59.968 100.123 59.968C99.3438 59.968 98.7625 60.2293 98.3785 60.752C97.9998 61.2693 97.8105 61.9973 97.8105 62.936C97.8105 63.8747 97.9998 64.6027 98.3785 65.12C98.7625 65.6373 99.3438 65.896 100.123 65.896ZM105.768 67V58.872H106.704C106.923 58.872 107.059 58.976 107.112 59.184L107.224 59.96C107.523 59.6027 107.853 59.312 108.216 59.088C108.584 58.8587 109.013 58.744 109.504 58.744C110.043 58.744 110.48 58.8933 110.816 59.192C111.152 59.4853 111.397 59.8853 111.552 60.392C111.669 60.104 111.821 59.856 112.008 59.648C112.195 59.44 112.403 59.2693 112.632 59.136C112.861 59.0027 113.104 58.904 113.36 58.84C113.621 58.776 113.885 58.744 114.152 58.744C114.584 58.744 114.968 58.8133 115.304 58.952C115.645 59.0853 115.933 59.2827 116.168 59.544C116.403 59.8053 116.581 60.128 116.704 60.512C116.827 60.896 116.888 61.3333 116.888 61.824V67H115.32V61.824C115.32 61.216 115.187 60.7573 114.92 60.448C114.659 60.1387 114.275 59.984 113.768 59.984C113.544 59.984 113.331 60.024 113.128 60.104C112.925 60.1787 112.747 60.2933 112.592 60.448C112.443 60.6027 112.323 60.7947 112.232 61.024C112.147 61.2533 112.104 61.52 112.104 61.824V67H110.536V61.824C110.536 61.1947 110.411 60.7307 110.16 60.432C109.909 60.1333 109.541 59.984 109.056 59.984C108.72 59.984 108.408 60.072 108.12 60.248C107.832 60.424 107.568 60.664 107.328 60.968V67H105.768ZM118.987 67V58.872H119.923C120.141 58.872 120.277 58.976 120.331 59.184L120.443 59.96C120.741 59.6027 121.072 59.312 121.435 59.088C121.803 58.8587 122.232 58.744 122.723 58.744C123.261 58.744 123.699 58.8933 124.035 59.192C124.371 59.4853 124.616 59.8853 124.771 60.392C124.888 60.104 125.04 59.856 125.227 59.648C125.413 59.44 125.621 59.2693 125.851 59.136C126.08 59.0027 126.323 58.904 126.579 58.84C126.84 58.776 127.104 58.744 127.371 58.744C127.803 58.744 128.187 58.8133 128.523 58.952C128.864 59.0853 129.152 59.2827 129.387 59.544C129.621 59.8053 129.8 60.128 129.923 60.512C130.045 60.896 130.107 61.3333 130.107 61.824V67H128.539V61.824C128.539 61.216 128.405 60.7573 128.139 60.448C127.877 60.1387 127.493 59.984 126.987 59.984C126.763 59.984 126.549 60.024 126.347 60.104C126.144 60.1787 125.965 60.2933 125.811 60.448C125.661 60.6027 125.541 60.7947 125.451 61.024C125.365 61.2533 125.323 61.52 125.323 61.824V67H123.755V61.824C123.755 61.1947 123.629 60.7307 123.379 60.432C123.128 60.1333 122.76 59.984 122.275 59.984C121.939 59.984 121.627 60.072 121.339 60.248C121.051 60.424 120.787 60.664 120.547 60.968V67H118.987ZM133.837 58.872V67H132.277V58.872H133.837ZM134.133 56.36C134.133 56.504 134.104 56.6427 134.045 56.776C133.987 56.904 133.907 57.0187 133.805 57.12C133.709 57.216 133.595 57.2933 133.461 57.352C133.328 57.4053 133.189 57.432 133.045 57.432C132.901 57.432 132.765 57.4053 132.637 57.352C132.509 57.2933 132.395 57.216 132.293 57.12C132.197 57.0187 132.12 56.904 132.061 56.776C132.008 56.6427 131.981 56.504 131.981 56.36C131.981 56.2107 132.008 56.072 132.061 55.944C132.12 55.8107 132.197 55.696 132.293 55.6C132.395 55.4987 132.509 55.4213 132.637 55.368C132.765 55.3093 132.901 55.28 133.045 55.28C133.189 55.28 133.328 55.3093 133.461 55.368C133.595 55.4213 133.709 55.4987 133.805 55.6C133.907 55.696 133.987 55.8107 134.045 55.944C134.104 56.072 134.133 56.2107 134.133 56.36ZM138.64 67.128C137.984 67.128 137.477 66.944 137.12 66.576C136.768 66.208 136.592 65.6827 136.592 65V60.136H135.648C135.557 60.136 135.48 60.1093 135.416 60.056C135.357 59.9973 135.328 59.912 135.328 59.8V59.168L136.648 58.984L137 56.56C137.021 56.4693 137.061 56.4 137.12 56.352C137.184 56.2987 137.264 56.272 137.36 56.272H138.152V59H141.864L142.224 56.56C142.24 56.4693 142.277 56.4 142.336 56.352C142.4 56.2987 142.48 56.272 142.576 56.272H143.376V59H145.68V60.136H143.376V64.896C143.376 65.216 143.453 65.456 143.608 65.616C143.763 65.7707 143.965 65.848 144.216 65.848C144.36 65.848 144.483 65.8293 144.584 65.792C144.691 65.7547 144.781 65.7147 144.856 65.672C144.931 65.624 144.995 65.5813 145.048 65.544C145.101 65.5067 145.149 65.488 145.192 65.488C145.24 65.488 145.28 65.5013 145.312 65.528C145.344 65.5493 145.376 65.5867 145.408 65.64L145.872 66.392C145.616 66.6267 145.309 66.808 144.952 66.936C144.6 67.064 144.235 67.128 143.856 67.128C143.2 67.128 142.693 66.944 142.336 66.576C141.984 66.208 141.808 65.6827 141.808 65V60.136H138.152V64.896C138.152 65.216 138.229 65.456 138.384 65.616C138.544 65.7707 138.747 65.848 138.992 65.848C139.136 65.848 139.259 65.8293 139.36 65.792C139.467 65.7547 139.557 65.7147 139.632 65.672C139.707 65.624 139.771 65.5813 139.824 65.544C139.877 65.5067 139.925 65.488 139.968 65.488C140.021 65.488 140.061 65.5013 140.088 65.528C140.12 65.5493 140.152 65.5867 140.184 65.64L140.648 66.392C140.392 66.6267 140.088 66.808 139.736 66.936C139.384 67.064 139.019 67.128 138.64 67.128ZM152.449 62.032C152.449 61.7227 152.403 61.4373 152.313 61.176C152.227 60.9147 152.099 60.688 151.929 60.496C151.758 60.304 151.55 60.1547 151.305 60.048C151.059 59.9413 150.777 59.888 150.457 59.888C149.801 59.888 149.283 60.0773 148.905 60.456C148.531 60.8347 148.294 61.36 148.193 62.032H152.449ZM153.737 65.84C153.545 66.064 153.323 66.2587 153.073 66.424C152.822 66.584 152.555 66.7147 152.273 66.816C151.99 66.9173 151.697 66.992 151.393 67.04C151.094 67.088 150.798 67.112 150.505 67.112C149.945 67.112 149.425 67.0187 148.945 66.832C148.47 66.64 148.057 66.3627 147.705 66C147.358 65.632 147.086 65.1787 146.889 64.64C146.697 64.096 146.601 63.472 146.601 62.768C146.601 62.2027 146.689 61.6773 146.865 61.192C147.041 60.7013 147.291 60.2747 147.617 59.912C147.947 59.5493 148.35 59.264 148.825 59.056C149.299 58.848 149.833 58.744 150.425 58.744C150.921 58.744 151.377 58.8267 151.793 58.992C152.214 59.152 152.577 59.3867 152.881 59.696C153.185 60.0053 153.422 60.3867 153.593 60.84C153.769 61.2933 153.857 61.8107 153.857 62.392C153.857 62.632 153.83 62.7947 153.777 62.88C153.723 62.96 153.625 63 153.481 63H148.153C148.169 63.4853 148.238 63.9093 148.361 64.272C148.483 64.6293 148.651 64.928 148.865 65.168C149.083 65.408 149.342 65.5867 149.641 65.704C149.939 65.8213 150.273 65.88 150.641 65.88C150.987 65.88 151.286 65.84 151.537 65.76C151.793 65.68 152.011 65.5947 152.193 65.504C152.379 65.408 152.534 65.32 152.657 65.24C152.785 65.16 152.897 65.12 152.993 65.12C153.121 65.12 153.219 65.168 153.289 65.264L153.737 65.84ZM160.774 60.84C160.518 60.504 160.24 60.2693 159.942 60.136C159.648 60.0027 159.318 59.936 158.95 59.936C158.235 59.936 157.68 60.1947 157.286 60.712C156.896 61.224 156.702 61.9733 156.702 62.96C156.702 63.4773 156.744 63.92 156.83 64.288C156.92 64.6507 157.048 64.9493 157.214 65.184C157.384 65.4133 157.592 65.584 157.838 65.696C158.083 65.8027 158.36 65.856 158.67 65.856C159.123 65.856 159.515 65.7547 159.846 65.552C160.176 65.3493 160.486 65.064 160.774 64.696V60.84ZM162.342 55.192V67H161.398C161.179 67 161.043 66.896 160.99 66.688L160.854 65.752C160.507 66.1627 160.112 66.4933 159.67 66.744C159.232 66.9893 158.726 67.112 158.15 67.112C157.686 67.112 157.264 67.0213 156.886 66.84C156.512 66.6587 156.192 66.3947 155.926 66.048C155.659 65.696 155.454 65.2613 155.31 64.744C155.166 64.2267 155.094 63.632 155.094 62.96C155.094 62.3573 155.174 61.7973 155.334 61.28C155.494 60.7627 155.726 60.3147 156.03 59.936C156.334 59.5573 156.702 59.2613 157.134 59.048C157.566 58.8293 158.054 58.72 158.598 58.72C159.088 58.72 159.504 58.8 159.846 58.96C160.192 59.12 160.502 59.3467 160.774 59.64V55.192H162.342ZM171.109 67.128C170.453 67.128 169.946 66.944 169.589 66.576C169.237 66.208 169.061 65.6827 169.061 65V60.136H168.117C168.026 60.136 167.949 60.1093 167.885 60.056C167.826 59.9973 167.797 59.912 167.797 59.8V59.168L169.117 58.984L169.469 56.56C169.49 56.4693 169.53 56.4 169.589 56.352C169.653 56.2987 169.733 56.272 169.829 56.272H170.621V59H172.925V60.136H170.621V64.896C170.621 65.216 170.698 65.456 170.853 65.616C171.013 65.7707 171.215 65.848 171.461 65.848C171.605 65.848 171.727 65.8293 171.829 65.792C171.935 65.7547 172.026 65.7147 172.101 65.672C172.175 65.624 172.239 65.5813 172.293 65.544C172.346 65.5067 172.394 65.488 172.437 65.488C172.49 65.488 172.53 65.5013 172.557 65.528C172.589 65.5493 172.621 65.5867 172.653 65.64L173.117 66.392C172.861 66.6267 172.557 66.808 172.205 66.936C171.853 67.064 171.487 67.128 171.109 67.128ZM177.779 58.744C178.376 58.744 178.915 58.8427 179.395 59.04C179.88 59.232 180.291 59.512 180.627 59.88C180.968 60.2427 181.229 60.6827 181.411 61.2C181.592 61.712 181.683 62.288 181.683 62.928C181.683 63.568 181.592 64.1467 181.411 64.664C181.229 65.1813 180.968 65.6213 180.627 65.984C180.291 66.3467 179.88 66.6267 179.395 66.824C178.915 67.016 178.376 67.112 177.779 67.112C177.176 67.112 176.632 67.016 176.147 66.824C175.667 66.6267 175.256 66.3467 174.915 65.984C174.573 65.6213 174.309 65.1813 174.123 64.664C173.941 64.1467 173.851 63.568 173.851 62.928C173.851 62.288 173.941 61.712 174.123 61.2C174.309 60.6827 174.573 60.2427 174.915 59.88C175.256 59.512 175.667 59.232 176.147 59.04C176.632 58.8427 177.176 58.744 177.779 58.744ZM177.779 65.896C178.547 65.896 179.12 65.6373 179.499 65.12C179.877 64.6027 180.067 63.8747 180.067 62.936C180.067 61.9973 179.877 61.2693 179.499 60.752C179.12 60.2293 178.547 59.968 177.779 59.968C177 59.968 176.419 60.2293 176.035 60.752C175.656 61.2693 175.467 61.9973 175.467 62.936C175.467 63.8747 175.656 64.6027 176.035 65.12C176.419 65.6373 177 65.896 177.779 65.896ZM189.031 59.904C189.372 59.5573 189.748 59.2773 190.159 59.064C190.575 58.8507 191.052 58.744 191.591 58.744C192.039 58.744 192.431 58.8187 192.767 58.968C193.108 59.1173 193.394 59.328 193.623 59.6C193.852 59.8667 194.026 60.1893 194.143 60.568C194.26 60.9467 194.319 61.3653 194.319 61.824V67H192.751V61.824C192.751 61.2427 192.618 60.792 192.351 60.472C192.084 60.1467 191.676 59.984 191.127 59.984C190.727 59.984 190.351 60.08 189.999 60.272C189.652 60.4587 189.33 60.7147 189.031 61.04V67H187.471V55.192H189.031V59.904ZM201.808 62.032C201.808 61.7227 201.763 61.4373 201.672 61.176C201.587 60.9147 201.459 60.688 201.288 60.496C201.117 60.304 200.909 60.1547 200.664 60.048C200.419 59.9413 200.136 59.888 199.816 59.888C199.16 59.888 198.643 60.0773 198.264 60.456C197.891 60.8347 197.653 61.36 197.552 62.032H201.808ZM203.096 65.84C202.904 66.064 202.683 66.2587 202.432 66.424C202.181 66.584 201.915 66.7147 201.632 66.816C201.349 66.9173 201.056 66.992 200.752 67.04C200.453 67.088 200.157 67.112 199.864 67.112C199.304 67.112 198.784 67.0187 198.304 66.832C197.829 66.64 197.416 66.3627 197.064 66C196.717 65.632 196.445 65.1787 196.248 64.64C196.056 64.096 195.96 63.472 195.96 62.768C195.96 62.2027 196.048 61.6773 196.224 61.192C196.4 60.7013 196.651 60.2747 196.976 59.912C197.307 59.5493 197.709 59.264 198.184 59.056C198.659 58.848 199.192 58.744 199.784 58.744C200.28 58.744 200.736 58.8267 201.152 58.992C201.573 59.152 201.936 59.3867 202.24 59.696C202.544 60.0053 202.781 60.3867 202.952 60.84C203.128 61.2933 203.216 61.8107 203.216 62.392C203.216 62.632 203.189 62.7947 203.136 62.88C203.083 62.96 202.984 63 202.84 63H197.512C197.528 63.4853 197.597 63.9093 197.72 64.272C197.843 64.6293 198.011 64.928 198.224 65.168C198.443 65.408 198.701 65.5867 199 65.704C199.299 65.8213 199.632 65.88 200 65.88C200.347 65.88 200.645 65.84 200.896 65.76C201.152 65.68 201.371 65.5947 201.552 65.504C201.739 65.408 201.893 65.32 202.016 65.24C202.144 65.16 202.256 65.12 202.352 65.12C202.48 65.12 202.579 65.168 202.648 65.264L203.096 65.84ZM206.493 55.192V67H204.925V55.192H206.493ZM210.281 65C210.537 65.336 210.812 65.5707 211.105 65.704C211.404 65.8373 211.737 65.904 212.105 65.904C212.82 65.904 213.372 65.648 213.761 65.136C214.156 64.6187 214.353 63.8667 214.353 62.88C214.353 62.3627 214.308 61.9227 214.217 61.56C214.132 61.192 214.004 60.8933 213.833 60.664C213.668 60.4293 213.462 60.2587 213.217 60.152C212.972 60.04 212.694 59.984 212.385 59.984C211.932 59.984 211.537 60.0853 211.201 60.288C210.87 60.4907 210.564 60.7787 210.281 61.152V65ZM210.201 60.088C210.372 59.8853 210.553 59.7013 210.745 59.536C210.942 59.3653 211.153 59.2213 211.377 59.104C211.601 58.9813 211.838 58.888 212.089 58.824C212.345 58.7547 212.617 58.72 212.905 58.72C213.369 58.72 213.788 58.8107 214.161 58.992C214.54 59.1733 214.862 59.44 215.129 59.792C215.396 60.144 215.601 60.5787 215.745 61.096C215.894 61.6133 215.969 62.208 215.969 62.88C215.969 63.4827 215.886 64.0427 215.721 64.56C215.561 65.072 215.329 65.5173 215.025 65.896C214.726 66.2747 214.358 66.5733 213.921 66.792C213.489 67.0053 213.001 67.112 212.457 67.112C211.972 67.112 211.556 67.032 211.209 66.872C210.862 66.712 210.553 66.488 210.281 66.2V69.728H208.721V58.872H209.657C209.876 58.872 210.012 58.976 210.065 59.184L210.201 60.088ZM219.353 58.872V67H217.793V58.872H219.353ZM219.649 56.36C219.649 56.504 219.62 56.6427 219.561 56.776C219.502 56.904 219.422 57.0187 219.321 57.12C219.225 57.216 219.11 57.2933 218.977 57.352C218.844 57.4053 218.705 57.432 218.561 57.432C218.417 57.432 218.281 57.4053 218.153 57.352C218.025 57.2933 217.91 57.216 217.809 57.12C217.713 57.0187 217.636 56.904 217.577 56.776C217.524 56.6427 217.497 56.504 217.497 56.36C217.497 56.2107 217.524 56.072 217.577 55.944C217.636 55.8107 217.713 55.696 217.809 55.6C217.91 55.4987 218.025 55.4213 218.153 55.368C218.281 55.3093 218.417 55.28 218.561 55.28C218.705 55.28 218.844 55.3093 218.977 55.368C219.11 55.4213 219.225 55.4987 219.321 55.6C219.422 55.696 219.502 55.8107 219.561 55.944C219.62 56.072 219.649 56.2107 219.649 56.36ZM223.076 60C223.252 59.8133 223.436 59.6427 223.628 59.488C223.82 59.3333 224.022 59.2027 224.236 59.096C224.454 58.984 224.686 58.8987 224.932 58.84C225.182 58.776 225.449 58.744 225.732 58.744C226.18 58.744 226.572 58.8187 226.908 58.968C227.249 59.1173 227.534 59.328 227.764 59.6C227.993 59.8667 228.166 60.1893 228.284 60.568C228.401 60.9467 228.46 61.3653 228.46 61.824V67H226.892V61.824C226.892 61.2427 226.758 60.792 226.492 60.472C226.225 60.1467 225.817 59.984 225.268 59.984C224.868 59.984 224.492 60.08 224.14 60.272C223.793 60.4587 223.47 60.7147 223.172 61.04V67H221.612V58.872H222.548C222.766 58.872 222.902 58.976 222.956 59.184L223.076 60ZM233.421 62.944C233.698 62.944 233.941 62.9067 234.149 62.832C234.362 62.7573 234.538 62.6533 234.677 62.52C234.821 62.3813 234.927 62.216 234.997 62.024C235.071 61.832 235.109 61.6213 235.109 61.392C235.109 60.9227 234.965 60.5493 234.677 60.272C234.394 59.9893 233.975 59.848 233.421 59.848C232.871 59.848 232.453 59.9893 232.165 60.272C231.882 60.5493 231.741 60.9227 231.741 61.392C231.741 61.6213 231.775 61.832 231.845 62.024C231.919 62.2107 232.026 62.3733 232.165 62.512C232.309 62.6453 232.485 62.752 232.693 62.832C232.906 62.9067 233.149 62.944 233.421 62.944ZM235.909 67.424C235.909 67.232 235.855 67.08 235.749 66.968C235.642 66.8507 235.495 66.76 235.309 66.696C235.127 66.6267 234.914 66.5787 234.669 66.552C234.423 66.52 234.165 66.496 233.893 66.48C233.626 66.464 233.351 66.4507 233.069 66.44C232.786 66.424 232.514 66.3973 232.253 66.36C231.975 66.4987 231.746 66.6667 231.565 66.864C231.389 67.0613 231.301 67.2933 231.301 67.56C231.301 67.7307 231.343 67.8907 231.429 68.04C231.519 68.1893 231.655 68.3173 231.837 68.424C232.023 68.536 232.255 68.6213 232.533 68.68C232.815 68.744 233.151 68.776 233.541 68.776C233.925 68.776 234.263 68.7413 234.557 68.672C234.85 68.608 235.095 68.5147 235.293 68.392C235.495 68.2747 235.647 68.1333 235.749 67.968C235.855 67.8027 235.909 67.6213 235.909 67.424ZM237.493 59.176V59.76C237.493 59.952 237.373 60.072 237.133 60.12L236.261 60.248C236.335 60.4133 236.394 60.5893 236.437 60.776C236.479 60.9573 236.501 61.1493 236.501 61.352C236.501 61.752 236.423 62.1147 236.269 62.44C236.114 62.76 235.901 63.0347 235.629 63.264C235.357 63.4933 235.031 63.6693 234.653 63.792C234.279 63.9147 233.869 63.976 233.421 63.976C233.053 63.976 232.709 63.936 232.389 63.856C232.229 63.952 232.106 64.0587 232.021 64.176C231.941 64.288 231.901 64.4 231.901 64.512C231.901 64.6987 231.978 64.8373 232.133 64.928C232.293 65.0187 232.498 65.0853 232.749 65.128C233.005 65.1653 233.295 65.1893 233.621 65.2C233.951 65.2107 234.285 65.2293 234.621 65.256C234.962 65.2773 235.295 65.32 235.621 65.384C235.951 65.4427 236.242 65.5413 236.493 65.68C236.749 65.8133 236.954 66 237.109 66.24C237.269 66.4747 237.349 66.7813 237.349 67.16C237.349 67.512 237.261 67.8533 237.085 68.184C236.914 68.5147 236.663 68.808 236.333 69.064C236.002 69.32 235.599 69.5253 235.125 69.68C234.65 69.8347 234.111 69.912 233.509 69.912C232.906 69.912 232.381 69.8533 231.933 69.736C231.49 69.6187 231.119 69.4613 230.821 69.264C230.527 69.0667 230.306 68.8373 230.157 68.576C230.013 68.3147 229.941 68.0427 229.941 67.76C229.941 67.3653 230.063 67.032 230.309 66.76C230.554 66.4827 230.893 66.2667 231.325 66.112C231.09 66.0053 230.903 65.8613 230.765 65.68C230.626 65.4933 230.557 65.248 230.557 64.944C230.557 64.8267 230.578 64.7067 230.621 64.584C230.663 64.456 230.727 64.3307 230.813 64.208C230.903 64.08 231.013 63.96 231.141 63.848C231.274 63.736 231.426 63.6347 231.597 63.544C231.197 63.32 230.882 63.024 230.653 62.656C230.423 62.2827 230.309 61.848 230.309 61.352C230.309 60.952 230.386 60.592 230.541 60.272C230.695 59.952 230.909 59.6773 231.181 59.448C231.458 59.2187 231.786 59.0427 232.165 58.92C232.549 58.7973 232.967 58.736 233.421 58.736C234.125 58.736 234.73 58.8827 235.237 59.176H237.493ZM249.669 58.872L245.157 69.36C245.109 69.4773 245.045 69.568 244.965 69.632C244.885 69.696 244.767 69.728 244.613 69.728H243.453L244.941 66.488L241.605 58.872H242.965C243.098 58.872 243.202 58.904 243.277 58.968C243.351 59.032 243.405 59.104 243.437 59.184L245.501 64.064C245.543 64.1867 245.583 64.312 245.621 64.44C245.663 64.5627 245.698 64.6853 245.725 64.808C245.762 64.68 245.802 64.5547 245.845 64.432C245.887 64.304 245.933 64.1787 245.981 64.056L247.973 59.184C248.01 59.0933 248.069 59.0187 248.149 58.96C248.229 58.9013 248.319 58.872 248.421 58.872H249.669ZM254.091 58.744C254.689 58.744 255.227 58.8427 255.707 59.04C256.193 59.232 256.603 59.512 256.939 59.88C257.281 60.2427 257.542 60.6827 257.723 61.2C257.905 61.712 257.995 62.288 257.995 62.928C257.995 63.568 257.905 64.1467 257.723 64.664C257.542 65.1813 257.281 65.6213 256.939 65.984C256.603 66.3467 256.193 66.6267 255.707 66.824C255.227 67.016 254.689 67.112 254.091 67.112C253.489 67.112 252.945 67.016 252.459 66.824C251.979 66.6267 251.569 66.3467 251.227 65.984C250.886 65.6213 250.622 65.1813 250.435 64.664C250.254 64.1467 250.163 63.568 250.163 62.928C250.163 62.288 250.254 61.712 250.435 61.2C250.622 60.6827 250.886 60.2427 251.227 59.88C251.569 59.512 251.979 59.232 252.459 59.04C252.945 58.8427 253.489 58.744 254.091 58.744ZM254.091 65.896C254.859 65.896 255.433 65.6373 255.811 65.12C256.19 64.6027 256.379 63.8747 256.379 62.936C256.379 61.9973 256.19 61.2693 255.811 60.752C255.433 60.2293 254.859 59.968 254.091 59.968C253.313 59.968 252.731 60.2293 252.347 60.752C251.969 61.2693 251.779 61.9973 251.779 62.936C251.779 63.8747 251.969 64.6027 252.347 65.12C252.731 65.6373 253.313 65.896 254.091 65.896ZM266.497 58.872V67H265.561C265.347 67 265.209 66.896 265.145 66.688L265.033 65.872C264.857 66.0587 264.673 66.2293 264.481 66.384C264.289 66.5387 264.083 66.672 263.865 66.784C263.646 66.8907 263.414 66.9733 263.169 67.032C262.923 67.096 262.659 67.128 262.377 67.128C261.929 67.128 261.534 67.0533 261.193 66.904C260.857 66.7547 260.574 66.5467 260.345 66.28C260.115 66.008 259.942 65.6827 259.825 65.304C259.707 64.9253 259.649 64.5067 259.649 64.048V58.872H261.217V64.048C261.217 64.6293 261.35 65.0827 261.617 65.408C261.883 65.728 262.291 65.888 262.841 65.888C263.241 65.888 263.614 65.7947 263.961 65.608C264.307 65.416 264.633 65.1547 264.937 64.824V58.872H266.497ZM273.265 67V60.152L272.417 60.048C272.294 60.0213 272.193 59.9787 272.113 59.92C272.038 59.856 272.001 59.7653 272.001 59.648V59H273.265V58.608C273.265 58.112 273.342 57.656 273.497 57.24C273.657 56.8187 273.894 56.456 274.209 56.152C274.529 55.848 274.924 55.6133 275.393 55.448C275.868 55.2773 276.422 55.192 277.057 55.192C277.26 55.192 277.473 55.2053 277.697 55.232C277.921 55.2587 278.11 55.2987 278.265 55.352L278.209 56.168C278.198 56.2747 278.132 56.3307 278.009 56.336C277.886 56.3413 277.716 56.344 277.497 56.344C277.012 56.344 276.598 56.392 276.257 56.488C275.916 56.584 275.636 56.728 275.417 56.92C275.198 57.112 275.038 57.3547 274.937 57.648C274.836 57.936 274.785 58.272 274.785 58.656V59H279.729V67H278.161V60.136H274.833V67H273.265ZM283.451 60C283.627 59.8133 283.811 59.6427 284.003 59.488C284.195 59.3333 284.397 59.2027 284.611 59.096C284.829 58.984 285.061 58.8987 285.307 58.84C285.557 58.776 285.824 58.744 286.107 58.744C286.555 58.744 286.947 58.8187 287.283 58.968C287.624 59.1173 287.909 59.328 288.139 59.6C288.368 59.8667 288.541 60.1893 288.659 60.568C288.776 60.9467 288.835 61.3653 288.835 61.824V67H287.267V61.824C287.267 61.2427 287.133 60.792 286.867 60.472C286.6 60.1467 286.192 59.984 285.643 59.984C285.243 59.984 284.867 60.08 284.515 60.272C284.168 60.4587 283.845 60.7147 283.547 61.04V67H281.987V58.872H282.923C283.141 58.872 283.277 58.976 283.331 59.184L283.451 60ZM296.18 60.84C295.924 60.504 295.646 60.2693 295.348 60.136C295.054 60.0027 294.724 59.936 294.356 59.936C293.641 59.936 293.086 60.1947 292.692 60.712C292.302 61.224 292.108 61.9733 292.108 62.96C292.108 63.4773 292.15 63.92 292.236 64.288C292.326 64.6507 292.454 64.9493 292.62 65.184C292.79 65.4133 292.998 65.584 293.244 65.696C293.489 65.8027 293.766 65.856 294.076 65.856C294.529 65.856 294.921 65.7547 295.252 65.552C295.582 65.3493 295.892 65.064 296.18 64.696V60.84ZM297.748 55.192V67H296.804C296.585 67 296.449 66.896 296.396 66.688L296.26 65.752C295.913 66.1627 295.518 66.4933 295.076 66.744C294.638 66.9893 294.132 67.112 293.556 67.112C293.092 67.112 292.67 67.0213 292.292 66.84C291.918 66.6587 291.598 66.3947 291.332 66.048C291.065 65.696 290.86 65.2613 290.716 64.744C290.572 64.2267 290.5 63.632 290.5 62.96C290.5 62.3573 290.58 61.7973 290.74 61.28C290.9 60.7627 291.132 60.3147 291.436 59.936C291.74 59.5573 292.108 59.2613 292.54 59.048C292.972 58.8293 293.46 58.72 294.004 58.72C294.494 58.72 294.91 58.8 295.252 58.96C295.598 59.12 295.908 59.3467 296.18 59.64V55.192H297.748ZM310.669 58.872L306.157 69.36C306.109 69.4773 306.045 69.568 305.965 69.632C305.885 69.696 305.767 69.728 305.613 69.728H304.453L305.941 66.488L302.605 58.872H303.965C304.098 58.872 304.202 58.904 304.277 58.968C304.351 59.032 304.405 59.104 304.437 59.184L306.501 64.064C306.543 64.1867 306.583 64.312 306.621 64.44C306.663 64.5627 306.698 64.6853 306.725 64.808C306.762 64.68 306.802 64.5547 306.845 64.432C306.887 64.304 306.933 64.1787 306.981 64.056L308.973 59.184C309.01 59.0933 309.069 59.0187 309.149 58.96C309.229 58.9013 309.319 58.872 309.421 58.872H310.669ZM315.091 58.744C315.689 58.744 316.227 58.8427 316.707 59.04C317.193 59.232 317.603 59.512 317.939 59.88C318.281 60.2427 318.542 60.6827 318.723 61.2C318.905 61.712 318.995 62.288 318.995 62.928C318.995 63.568 318.905 64.1467 318.723 64.664C318.542 65.1813 318.281 65.6213 317.939 65.984C317.603 66.3467 317.193 66.6267 316.707 66.824C316.227 67.016 315.689 67.112 315.091 67.112C314.489 67.112 313.945 67.016 313.459 66.824C312.979 66.6267 312.569 66.3467 312.227 65.984C311.886 65.6213 311.622 65.1813 311.435 64.664C311.254 64.1467 311.163 63.568 311.163 62.928C311.163 62.288 311.254 61.712 311.435 61.2C311.622 60.6827 311.886 60.2427 312.227 59.88C312.569 59.512 312.979 59.232 313.459 59.04C313.945 58.8427 314.489 58.744 315.091 58.744ZM315.091 65.896C315.859 65.896 316.433 65.6373 316.811 65.12C317.19 64.6027 317.379 63.8747 317.379 62.936C317.379 61.9973 317.19 61.2693 316.811 60.752C316.433 60.2293 315.859 59.968 315.091 59.968C314.313 59.968 313.731 60.2293 313.347 60.752C312.969 61.2693 312.779 61.9973 312.779 62.936C312.779 63.8747 312.969 64.6027 313.347 65.12C313.731 65.6373 314.313 65.896 315.091 65.896ZM327.497 58.872V67H326.561C326.347 67 326.209 66.896 326.145 66.688L326.033 65.872C325.857 66.0587 325.673 66.2293 325.481 66.384C325.289 66.5387 325.083 66.672 324.865 66.784C324.646 66.8907 324.414 66.9733 324.169 67.032C323.923 67.096 323.659 67.128 323.377 67.128C322.929 67.128 322.534 67.0533 322.193 66.904C321.857 66.7547 321.574 66.5467 321.345 66.28C321.115 66.008 320.942 65.6827 320.825 65.304C320.707 64.9253 320.649 64.5067 320.649 64.048V58.872H322.217V64.048C322.217 64.6293 322.35 65.0827 322.617 65.408C322.883 65.728 323.291 65.888 323.841 65.888C324.241 65.888 324.614 65.7947 324.961 65.608C325.307 65.416 325.633 65.1547 325.937 64.824V58.872H327.497ZM331.146 60.432C331.407 59.8987 331.722 59.48 332.09 59.176C332.458 58.872 332.901 58.72 333.418 58.72C333.594 58.72 333.759 58.7413 333.914 58.784C334.074 58.8213 334.213 58.88 334.33 58.96L334.226 60.136C334.189 60.28 334.101 60.352 333.962 60.352C333.887 60.352 333.775 60.3387 333.626 60.312C333.477 60.28 333.317 60.264 333.146 60.264C332.895 60.264 332.674 60.3013 332.482 60.376C332.29 60.4453 332.117 60.552 331.962 60.696C331.813 60.8347 331.679 61.008 331.562 61.216C331.445 61.4187 331.335 61.6507 331.234 61.912V67H329.674V58.872H330.57C330.741 58.872 330.855 58.904 330.914 58.968C330.978 59.0267 331.023 59.1333 331.05 59.288L331.146 60.432ZM344.477 60.84C344.221 60.504 343.943 60.2693 343.645 60.136C343.351 60.0027 343.021 59.936 342.653 59.936C341.938 59.936 341.383 60.1947 340.989 60.712C340.599 61.224 340.405 61.9733 340.405 62.96C340.405 63.4773 340.447 63.92 340.533 64.288C340.623 64.6507 340.751 64.9493 340.917 65.184C341.087 65.4133 341.295 65.584 341.541 65.696C341.786 65.8027 342.063 65.856 342.373 65.856C342.826 65.856 343.218 65.7547 343.549 65.552C343.879 65.3493 344.189 65.064 344.477 64.696V60.84ZM346.045 55.192V67H345.101C344.882 67 344.746 66.896 344.693 66.688L344.557 65.752C344.21 66.1627 343.815 66.4933 343.373 66.744C342.935 66.9893 342.429 67.112 341.853 67.112C341.389 67.112 340.967 67.0213 340.589 66.84C340.215 66.6587 339.895 66.3947 339.629 66.048C339.362 65.696 339.157 65.2613 339.013 64.744C338.869 64.2267 338.797 63.632 338.797 62.96C338.797 62.3573 338.877 61.7973 339.037 61.28C339.197 60.7627 339.429 60.3147 339.733 59.936C340.037 59.5573 340.405 59.2613 340.837 59.048C341.269 58.8293 341.757 58.72 342.301 58.72C342.791 58.72 343.207 58.8 343.549 58.96C343.895 59.12 344.205 59.3467 344.477 59.64V55.192H346.045ZM349.693 60.432C349.954 59.8987 350.269 59.48 350.637 59.176C351.005 58.872 351.448 58.72 351.965 58.72C352.141 58.72 352.306 58.7413 352.461 58.784C352.621 58.8213 352.76 58.88 352.877 58.96L352.773 60.136C352.736 60.28 352.648 60.352 352.509 60.352C352.434 60.352 352.322 60.3387 352.173 60.312C352.024 60.28 351.864 60.264 351.693 60.264C351.442 60.264 351.221 60.3013 351.029 60.376C350.837 60.4453 350.664 60.552 350.509 60.696C350.36 60.8347 350.226 61.008 350.109 61.216C349.992 61.4187 349.882 61.6507 349.781 61.912V67H348.221V58.872H349.117C349.288 58.872 349.402 58.904 349.461 58.968C349.525 59.0267 349.57 59.1333 349.597 59.288L349.693 60.432ZM359.168 62.032C359.168 61.7227 359.122 61.4373 359.032 61.176C358.946 60.9147 358.818 60.688 358.648 60.496C358.477 60.304 358.269 60.1547 358.024 60.048C357.778 59.9413 357.496 59.888 357.176 59.888C356.52 59.888 356.002 60.0773 355.624 60.456C355.25 60.8347 355.013 61.36 354.912 62.032H359.168ZM360.456 65.84C360.264 66.064 360.042 66.2587 359.792 66.424C359.541 66.584 359.274 66.7147 358.992 66.816C358.709 66.9173 358.416 66.992 358.112 67.04C357.813 67.088 357.517 67.112 357.224 67.112C356.664 67.112 356.144 67.0187 355.664 66.832C355.189 66.64 354.776 66.3627 354.424 66C354.077 65.632 353.805 65.1787 353.608 64.64C353.416 64.096 353.32 63.472 353.32 62.768C353.32 62.2027 353.408 61.6773 353.584 61.192C353.76 60.7013 354.01 60.2747 354.336 59.912C354.666 59.5493 355.069 59.264 355.544 59.056C356.018 58.848 356.552 58.744 357.144 58.744C357.64 58.744 358.096 58.8267 358.512 58.992C358.933 59.152 359.296 59.3867 359.6 59.696C359.904 60.0053 360.141 60.3867 360.312 60.84C360.488 61.2933 360.576 61.8107 360.576 62.392C360.576 62.632 360.549 62.7947 360.496 62.88C360.442 62.96 360.344 63 360.2 63H354.872C354.888 63.4853 354.957 63.9093 355.08 64.272C355.202 64.6293 355.37 64.928 355.584 65.168C355.802 65.408 356.061 65.5867 356.36 65.704C356.658 65.8213 356.992 65.88 357.36 65.88C357.706 65.88 358.005 65.84 358.256 65.76C358.512 65.68 358.73 65.5947 358.912 65.504C359.098 65.408 359.253 65.32 359.376 65.24C359.504 65.16 359.616 65.12 359.712 65.12C359.84 65.12 359.938 65.168 360.008 65.264L360.456 65.84ZM366.62 63.392C365.986 63.4133 365.447 63.464 365.004 63.544C364.562 63.6187 364.202 63.72 363.924 63.848C363.647 63.976 363.447 64.128 363.324 64.304C363.202 64.4747 363.14 64.6667 363.14 64.88C363.14 65.0827 363.172 65.2587 363.236 65.408C363.306 65.552 363.396 65.672 363.508 65.768C363.626 65.8587 363.762 65.9253 363.916 65.968C364.071 66.0107 364.239 66.032 364.42 66.032C364.66 66.032 364.879 66.008 365.076 65.96C365.279 65.912 365.468 65.8453 365.644 65.76C365.82 65.6693 365.988 65.56 366.148 65.432C366.308 65.304 366.466 65.1573 366.62 64.992V63.392ZM362.044 60.008C362.498 59.576 362.988 59.2533 363.516 59.04C364.05 58.8267 364.634 58.72 365.268 58.72C365.732 58.72 366.143 58.7973 366.5 58.952C366.858 59.1013 367.159 59.312 367.404 59.584C367.65 59.856 367.834 60.1813 367.956 60.56C368.084 60.9387 368.148 61.3573 368.148 61.816V67H367.452C367.298 67 367.18 66.976 367.1 66.928C367.02 66.8747 366.956 66.7787 366.908 66.64L366.74 65.928C366.532 66.12 366.327 66.2907 366.124 66.44C365.922 66.584 365.708 66.7093 365.484 66.816C365.266 66.9173 365.031 66.9947 364.78 67.048C364.53 67.1013 364.252 67.128 363.948 67.128C363.628 67.128 363.327 67.0853 363.044 67C362.767 66.9093 362.524 66.7733 362.316 66.592C362.108 66.4107 361.943 66.184 361.82 65.912C361.703 65.64 361.644 65.3227 361.644 64.96C361.644 64.64 361.73 64.3333 361.9 64.04C362.076 63.7413 362.359 63.4747 362.748 63.24C363.143 63.0053 363.655 62.8133 364.284 62.664C364.919 62.5147 365.698 62.4293 366.62 62.408V61.816C366.62 61.2027 366.49 60.744 366.228 60.44C365.967 60.136 365.583 59.984 365.076 59.984C364.735 59.984 364.447 60.0267 364.212 60.112C363.983 60.1973 363.783 60.2933 363.612 60.4C363.447 60.5013 363.3 60.5947 363.172 60.68C363.05 60.7653 362.922 60.808 362.788 60.808C362.682 60.808 362.588 60.7787 362.508 60.72C362.434 60.6613 362.372 60.592 362.324 60.512L362.044 60.008ZM370.237 67V58.872H371.173C371.391 58.872 371.527 58.976 371.581 59.184L371.693 59.96C371.991 59.6027 372.322 59.312 372.685 59.088C373.053 58.8587 373.482 58.744 373.973 58.744C374.511 58.744 374.949 58.8933 375.285 59.192C375.621 59.4853 375.866 59.8853 376.021 60.392C376.138 60.104 376.29 59.856 376.477 59.648C376.663 59.44 376.871 59.2693 377.101 59.136C377.33 59.0027 377.573 58.904 377.829 58.84C378.09 58.776 378.354 58.744 378.621 58.744C379.053 58.744 379.437 58.8133 379.773 58.952C380.114 59.0853 380.402 59.2827 380.637 59.544C380.871 59.8053 381.05 60.128 381.173 60.512C381.295 60.896 381.357 61.3333 381.357 61.824V67H379.789V61.824C379.789 61.216 379.655 60.7573 379.389 60.448C379.127 60.1387 378.743 59.984 378.237 59.984C378.013 59.984 377.799 60.024 377.597 60.104C377.394 60.1787 377.215 60.2933 377.061 60.448C376.911 60.6027 376.791 60.7947 376.701 61.024C376.615 61.2533 376.573 61.52 376.573 61.824V67H375.005V61.824C375.005 61.1947 374.879 60.7307 374.629 60.432C374.378 60.1333 374.01 59.984 373.525 59.984C373.189 59.984 372.877 60.072 372.589 60.248C372.301 60.424 372.037 60.664 371.797 60.968V67H370.237ZM389.062 59.904C389.404 59.5573 389.78 59.2773 390.19 59.064C390.606 58.8507 391.084 58.744 391.622 58.744C392.07 58.744 392.462 58.8187 392.798 58.968C393.14 59.1173 393.425 59.328 393.654 59.6C393.884 59.8667 394.057 60.1893 394.174 60.568C394.292 60.9467 394.35 61.3653 394.35 61.824V67H392.782V61.824C392.782 61.2427 392.649 60.792 392.382 60.472C392.116 60.1467 391.708 59.984 391.158 59.984C390.758 59.984 390.382 60.08 390.03 60.272C389.684 60.4587 389.361 60.7147 389.062 61.04V67H387.502V55.192H389.062V59.904ZM399.919 58.744C400.517 58.744 401.055 58.8427 401.535 59.04C402.021 59.232 402.431 59.512 402.767 59.88C403.109 60.2427 403.37 60.6827 403.551 61.2C403.733 61.712 403.823 62.288 403.823 62.928C403.823 63.568 403.733 64.1467 403.551 64.664C403.37 65.1813 403.109 65.6213 402.767 65.984C402.431 66.3467 402.021 66.6267 401.535 66.824C401.055 67.016 400.517 67.112 399.919 67.112C399.317 67.112 398.773 67.016 398.287 66.824C397.807 66.6267 397.397 66.3467 397.055 65.984C396.714 65.6213 396.45 65.1813 396.263 64.664C396.082 64.1467 395.991 63.568 395.991 62.928C395.991 62.288 396.082 61.712 396.263 61.2C396.45 60.6827 396.714 60.2427 397.055 59.88C397.397 59.512 397.807 59.232 398.287 59.04C398.773 58.8427 399.317 58.744 399.919 58.744ZM399.919 65.896C400.687 65.896 401.261 65.6373 401.639 65.12C402.018 64.6027 402.207 63.8747 402.207 62.936C402.207 61.9973 402.018 61.2693 401.639 60.752C401.261 60.2293 400.687 59.968 399.919 59.968C399.141 59.968 398.559 60.2293 398.175 60.752C397.797 61.2693 397.607 61.9973 397.607 62.936C397.607 63.8747 397.797 64.6027 398.175 65.12C398.559 65.6373 399.141 65.896 399.919 65.896ZM405.565 67V58.872H406.501C406.719 58.872 406.855 58.976 406.909 59.184L407.021 59.96C407.319 59.6027 407.65 59.312 408.013 59.088C408.381 58.8587 408.81 58.744 409.301 58.744C409.839 58.744 410.277 58.8933 410.613 59.192C410.949 59.4853 411.194 59.8853 411.349 60.392C411.466 60.104 411.618 59.856 411.805 59.648C411.991 59.44 412.199 59.2693 412.429 59.136C412.658 59.0027 412.901 58.904 413.157 58.84C413.418 58.776 413.682 58.744 413.949 58.744C414.381 58.744 414.765 58.8133 415.101 58.952C415.442 59.0853 415.73 59.2827 415.965 59.544C416.199 59.8053 416.378 60.128 416.501 60.512C416.623 60.896 416.685 61.3333 416.685 61.824V67H415.117V61.824C415.117 61.216 414.983 60.7573 414.717 60.448C414.455 60.1387 414.071 59.984 413.565 59.984C413.341 59.984 413.127 60.024 412.925 60.104C412.722 60.1787 412.543 60.2933 412.389 60.448C412.239 60.6027 412.119 60.7947 412.029 61.024C411.943 61.2533 411.901 61.52 411.901 61.824V67H410.333V61.824C410.333 61.1947 410.207 60.7307 409.957 60.432C409.706 60.1333 409.338 59.984 408.853 59.984C408.517 59.984 408.205 60.072 407.917 60.248C407.629 60.424 407.365 60.664 407.125 60.968V67H405.565ZM424.168 62.032C424.168 61.7227 424.122 61.4373 424.032 61.176C423.946 60.9147 423.818 60.688 423.648 60.496C423.477 60.304 423.269 60.1547 423.024 60.048C422.778 59.9413 422.496 59.888 422.176 59.888C421.52 59.888 421.002 60.0773 420.624 60.456C420.25 60.8347 420.013 61.36 419.912 62.032H424.168ZM425.456 65.84C425.264 66.064 425.042 66.2587 424.792 66.424C424.541 66.584 424.274 66.7147 423.992 66.816C423.709 66.9173 423.416 66.992 423.112 67.04C422.813 67.088 422.517 67.112 422.224 67.112C421.664 67.112 421.144 67.0187 420.664 66.832C420.189 66.64 419.776 66.3627 419.424 66C419.077 65.632 418.805 65.1787 418.608 64.64C418.416 64.096 418.32 63.472 418.32 62.768C418.32 62.2027 418.408 61.6773 418.584 61.192C418.76 60.7013 419.01 60.2747 419.336 59.912C419.666 59.5493 420.069 59.264 420.544 59.056C421.018 58.848 421.552 58.744 422.144 58.744C422.64 58.744 423.096 58.8267 423.512 58.992C423.933 59.152 424.296 59.3867 424.6 59.696C424.904 60.0053 425.141 60.3867 425.312 60.84C425.488 61.2933 425.576 61.8107 425.576 62.392C425.576 62.632 425.549 62.7947 425.496 62.88C425.442 62.96 425.344 63 425.2 63H419.872C419.888 63.4853 419.957 63.9093 420.08 64.272C420.202 64.6293 420.37 64.928 420.584 65.168C420.802 65.408 421.061 65.5867 421.36 65.704C421.658 65.8213 421.992 65.88 422.36 65.88C422.706 65.88 423.005 65.84 423.256 65.76C423.512 65.68 423.73 65.5947 423.912 65.504C424.098 65.408 424.253 65.32 424.376 65.24C424.504 65.16 424.616 65.12 424.712 65.12C424.84 65.12 424.938 65.168 425.008 65.264L425.456 65.84Z" fill="black" fill-opacity="0.9"/>
<rect x="186" y="86" width="55" height="3" rx="1.5" fill="#D32323"/>
</svg>
